<svg width="540" height="400" viewBox="0 0 540 400" fill="none" xmlns="http://www.w3.org/2000/svg">
<g clip-path="url(#clip0)">
<path opacity="0.5" d="M42.8 360.4C42.8 360.4 4.2 340.3 8 300.5C12.2 256.2 47.1 249.7 51.9 222.6C61.6 167.4 23.5 173.9 24.5 108.3C25.5 40.6 86.4 -25.5 175.9 9.89999C255.5 41.4 273.1 73.1 326.8 74.2C380.5 75.3 421.7 43.1 467.8 78.6C499 102.7 518 154.7 481.2 215.1C444.4 275.5 472.5 289.7 487 316.1C501.5 342.5 492.8 360.3 492.8 360.3H42.8V360.4Z" fill="#EBF8FF"/>
<path d="M232.7 374.6C164.2 374.8 68.7 374.9 4 374.6C1.8 374.6 -5 374.7 6.8 367.1C16.8 360.6 48.4 366.5 48.4 366.5C48.4 366.5 41 363.5 41.1 359.7C41.1 355.9 44 352.5 47.5 351C51 349.4 54.9 349.3 58.7 349.5C66.4 349.9 74.1 351.7 81.3 354.6C78.2 352.7 77.3 348.1 79.4 345.2C81.5 342.3 86.1 341.7 88.9 344C84 337.4 76.5 308.3 99.6 295.4C128.5 279.3 150.5 292.5 155.2 302.2C157.6 292.7 168.5 285.5 175.7 283.7C192.1 279.6 202.8 280.8 218.1 288C223.5 290.5 230.8 299.2 234.4 303.9C240 311.4 240.9 321.3 241.2 330.7C241.4 337.7 241.5 344.7 241.3 351.8" fill="#A6CEEF"/>
<path d="M299.9 374.6C371 374.8 468.5 374.9 535.1 374.6C537.3 374.6 544.4 374.7 532.2 366.8C521.9 360.2 489.4 366.1 489.4 366.1C489.4 366.1 497 363.1 496.9 359.2C496.9 355.3 493.9 351.8 490.3 350.2C486.7 348.6 482.7 348.5 478.8 348.7C470.8 349.2 463 350.9 455.6 353.9C458.7 352 459.7 347.2 457.6 344.2C455.5 341.2 450.7 340.6 447.8 342.9C452.8 336.1 460.5 306.2 436.8 293C407.1 276.4 384.5 290.1 379.7 300C377.3 290.2 366 282.8 358.6 281C341.7 276.8 330.8 278.1 315 285.4C309.4 288 302 296.9 298.3 301.8C292.5 309.5 291.6 319.7 291.3 329.3C291.1 336.5 291 343.7 291.2 351" fill="#A6CEEF"/>
<path d="M96.3 232.2C93.9 227.1 91.4 221.9 91.6 216.3C91.7 211.1 91.5 205.4 92.9 200.3C94.3 195.3 94.5 190 93.9 184.9C92.1 168.7 85.3 169.7 82.8 170.7C80.3 171.6 78.9 174.1 78.3 178.2C77.8 181.5 78.5 197.5 73.6 194.6C68 191.3 69.9 174.9 69.6 169.3C69.1 161 66.7 151.9 61 145.6C58.2 142.5 53.9 139.9 50 141.4C47.6 142.3 46 144.4 44.9 146.7C41.7 153.5 43.4 161.2 45.5 168.1C46.4 171 54.5 184.7 46.8 182.7C45 182.2 30.6 168.3 27.8 180.8C26.8 185.2 31.3 190.3 38.6 196.9C43.2 201 60.5 212.3 59 217.1C57.6 221.9 48.2 213 48.5 222.3C48.6 227.5 55 231.9 59.4 234.4C61.5 235.6 63.8 236.3 65.8 237.6C68.2 239.1 70.9 242.5 68.7 245.3C67.7 246.5 66 247 65.1 248.2C64.2 249.5 64.2 251.3 64.9 252.7C65.6 254.1 66.8 255.2 68 256.2C76 262.4 86.7 264.4 96.8 263.4C106.9 262.5 116.5 258.9 125.8 254.9" fill="#A6CEEF"/>
<g opacity="0.25">
<path opacity="0.25" d="M53.9 150.5C53.9 150.5 58.6 205.4 87.7 242.3" stroke="white" stroke-width="1.2443" stroke-miterlimit="10" stroke-linecap="round" stroke-linejoin="round"/>
<path opacity="0.25" d="M35.2 184.3C35.2 184.3 51.9 200.4 66.7 204.1" stroke="white" stroke-width="1.2443" stroke-miterlimit="10" stroke-linecap="round" stroke-linejoin="round"/>
<path opacity="0.25" d="M84.8 177.6C84.9 186.2 83.1 209.8 73.9 220.4" stroke="white" stroke-width="1.2443" stroke-miterlimit="10" stroke-linecap="round" stroke-linejoin="round"/>
<path opacity="0.25" d="M55 224.6C55 224.6 61.5 231.5 83.4 236.4" stroke="white" stroke-width="1.2443" stroke-miterlimit="10" stroke-linecap="round" stroke-linejoin="round"/>
<path opacity="0.25" d="M69.2 250C69.2 250 80.4 253.2 91.2 248.3" stroke="white" stroke-width="1.2443" stroke-miterlimit="10" stroke-linecap="round" stroke-linejoin="round"/>
</g>
<path d="M430.2 141.2C432.4 136.6 434.6 131.8 434.5 126.7C434.4 122 434.6 116.7 433.3 112.2C432.1 107.6 431.9 102.9 432.4 98.2C434 83.5 440.2 84.4 442.5 85.3C444.8 86.1 446.1 88.4 446.6 92.2C447 95.2 446.4 109.7 450.9 107.1C456 104.1 454.3 89.2 454.6 84.1C455.1 76.5 457.3 68.3 462.4 62.5C464.9 59.7 468.9 57.4 472.4 58.7C474.5 59.5 476.1 61.4 477 63.5C479.9 69.7 478.4 76.7 476.5 82.9C475.7 85.5 468.3 98 475.3 96.2C477 95.8 490 83.1 492.6 94.5C493.5 98.5 489.4 103.1 482.8 109.1C478.6 112.8 462.9 123.1 464.2 127.5C465.5 131.9 474 123.8 473.8 132.2C473.7 136.9 467.9 141 463.9 143.2C462 144.2 459.9 144.9 458.1 146.1C455.9 147.5 453.4 150.6 455.5 153.1C456.4 154.2 457.9 154.6 458.8 155.8C459.7 156.9 459.6 158.6 459 159.9C458.4 161.2 457.3 162.2 456.1 163.1C448.8 168.7 439.1 170.5 429.9 169.7C420.7 168.9 412 165.6 403.5 161.9" fill="#A6CEEF"/>
<g opacity="0.25">
<path opacity="0.25" d="M468.8 66.9C468.8 66.9 464.5 116.8 438 150.4" stroke="white" stroke-width="1.1315" stroke-miterlimit="10" stroke-linecap="round" stroke-linejoin="round"/>
<path opacity="0.25" d="M485.7 97.7C485.7 97.7 470.5 112.4 457 115.7" stroke="white" stroke-width="1.1315" stroke-miterlimit="10" stroke-linecap="round" stroke-linejoin="round"/>
<path opacity="0.25" d="M440.6 91.6C440.5 99.4 442.1 120.9 450.5 130.5" stroke="white" stroke-width="1.1315" stroke-miterlimit="10" stroke-linecap="round" stroke-linejoin="round"/>
<path opacity="0.25" d="M467.7 134.4C467.7 134.4 461.8 140.7 441.9 145.1" stroke="white" stroke-width="1.1315" stroke-miterlimit="10" stroke-linecap="round" stroke-linejoin="round"/>
<path opacity="0.25" d="M454.8 157.4C454.8 157.4 444.6 160.3 434.8 155.9" stroke="white" stroke-width="1.1315" stroke-miterlimit="10" stroke-linecap="round" stroke-linejoin="round"/>
</g>
<g opacity="0.5">
<path opacity="0.5" d="M351 366.8C354 365.7 355.9 364.2 356.1 362.3C356.4 358.9 348.9 358.9 343.1 359.6C350.8 355.2 357.5 349.6 354.9 343.9C349.6 332.1 332.4 345.1 326.5 352.7C326.5 352.7 352.5 320 336.3 314C321.8 308.6 315.8 343.9 315.2 347.5C315.7 344.1 320.2 312.3 303.5 313.8C286 315.4 288.8 369.2 288.8 369.2C288.8 369.2 317.9 371.3 337.8 369.3L317.4 374.7H369.6C372.6 365.8 360.3 365.7 351 366.8Z" fill="#8AE9FF"/>
<path opacity="0.5" d="M232.8 313.8C215 312.2 219.8 346.2 220.3 349.9C219.7 346.1 213.2 308.3 197.7 314.1C180.3 320.5 208.2 355.5 208.2 355.5C201.9 347.4 185.8 335.4 180.2 348.1C177.7 353.6 183 358.8 189.8 362.8C185.5 361.8 181 361.3 179.6 363C177.9 365.1 178.4 367.4 180.9 369.3C173.5 367.5 152.5 363.2 156.3 374.7H208.5L203.2 373.7C206.5 373.3 208.4 372.4 209.4 371.2C209.6 371.3 209.7 371.3 209.7 371.3L248.5 373L242.6 353.1C242.7 353.3 251.6 315.5 232.8 313.8Z" fill="#8AE9FF"/>
</g>
<path opacity="0.2" d="M221.6 370.2C221.6 370.2 203.4 363.2 207.8 357.1C210.6 353.3 215.9 359.8 215.9 359.8C215.9 359.8 208.9 350.6 214.9 347.8C221.2 344.9 224.6 355.5 224.6 355.5C224.6 355.5 222.2 346.2 227.1 344.9C231.9 343.6 232.3 354.2 232.3 354.2C232.3 354.2 238.5 345.8 242.2 352.5C245.6 358.6 235.4 370.6 235.4 370.6" fill="#105992"/>
<path opacity="0.2" d="M315.6 371.4C315.6 371.4 333.8 364.4 329.4 358.3C326.6 354.5 321.3 361 321.3 361C321.3 361 328.3 351.8 322.3 349C316 346.1 312.6 356.7 312.6 356.7C312.6 356.7 315 347.4 310.1 346.1C305.3 344.8 304.9 355.4 304.9 355.4C304.9 355.4 298.7 347 295 353.7C291.6 359.8 301.8 371.8 301.8 371.8" fill="#105992"/>
<path d="M306 366.2H233.4L241.2 335.2L243 328.2L246.5 314.6H292.8L296.3 328.2L298.1 335.2L306 366.2Z" fill="#105992"/>
<path d="M440.4 114V319.5C440.4 323.7 437.6 327.2 433.9 328.1C433.3 328.3 432.6 328.3 431.9 328.3H108.4C106.7 328.3 105.2 327.8 103.9 326.9C103.4 326.6 103 326.2 102.6 325.8C101 324.2 100 321.9 100 319.4V114C100 109.1 103.8 105.1 108.4 105.1H432C436.6 105.1 440.4 109.1 440.4 114Z" fill="#105992"/>
<path d="M298.1 335.2H241.2L243 328.2H296.3L298.1 335.2Z" fill="#105992"/>
<path d="M333.8 374.8H205.5C202.4 374.8 199.9 372.3 199.9 369.2C199.9 366.1 202.4 363.6 205.5 363.6H333.8C336.9 363.6 339.4 366.1 339.4 369.2C339.4 372.3 336.9 374.8 333.8 374.8Z" fill="#105992"/>
<path d="M440.4 114V291.2H99.9V114C99.9 109.1 103.7 105.1 108.4 105.1H432C436.6 105.1 440.4 109.1 440.4 114Z" fill="#105992"/>
<path d="M430.5 115.6H109.8V282H430.5V115.6Z" fill="#EBF8FF"/>
<g opacity="0.7">
<g opacity="0.5">
<g opacity="0.3">
<g opacity="0.3">
<g opacity="0.3">
<g opacity="0.3">
<path opacity="0.3" d="M81 118.4H80C79.4 118.7 78.7 119 77.7 119.2V120.1H79.7V127.9H77.2V129H83.3V127.9H81V118.4Z" fill="#56A4FE"/>
</g>
<g opacity="0.3">
<path opacity="0.3" d="M115.9 118.4H114.8C114.2 118.7 113.5 119 112.5 119.2V120.1H114.5V127.9H112V129H118.1V127.9H115.9V118.4V118.4Z" fill="#56A4FE"/>
</g>
<g opacity="0.3">
<path opacity="0.3" d="M97.6 118.2C95.4 118.2 94.1 120.1 94.1 123.7C94.1 127.3 95.4 129.3 97.6 129.3C99.7 129.3 101 127.3 101 123.7C101.1 120.1 99.8 118.2 97.6 118.2ZM97.6 128.1C96.3 128.1 95.5 126.8 95.5 123.6C95.5 120.5 96.3 119.2 97.6 119.2C98.9 119.2 99.7 120.5 99.7 123.6C99.7 126.8 98.9 128.1 97.6 128.1Z" fill="#56A4FE"/>
</g>
<g opacity="0.3">
<path opacity="0.3" d="M151.7 118.2C149.5 118.2 148.2 120.1 148.2 123.7C148.2 127.3 149.5 129.3 151.7 129.3C153.8 129.3 155.1 127.3 155.1 123.7C155.1 120.1 153.8 118.2 151.7 118.2ZM151.7 128.1C150.4 128.1 149.6 126.8 149.6 123.6C149.6 120.5 150.4 119.2 151.7 119.2C153 119.2 153.8 120.5 153.8 123.6C153.8 126.8 152.9 128.1 151.7 128.1Z" fill="#56A4FE"/>
</g>
<g opacity="0.3">
<path opacity="0.3" d="M171.1 118.4H170C169.4 118.7 168.7 119 167.7 119.2V120.1H169.7V127.9H167.2V129H173.3V127.9H171.1V118.4Z" fill="#56A4FE"/>
</g>
<g opacity="0.3">
<path opacity="0.3" d="M80 137C77.8 137 76.5 138.9 76.5 142.5C76.5 146.1 77.8 148.1 80 148.1C82.1 148.1 83.4 146.1 83.4 142.5C83.5 138.9 82.2 137 80 137ZM80 146.9C78.7 146.9 77.9 145.6 77.9 142.4C77.9 139.3 78.7 138 80 138C81.3 138 82.1 139.3 82.1 142.4C82.1 145.6 81.3 146.9 80 146.9Z" fill="#56A4FE"/>
</g>
<g opacity="0.3">
<path opacity="0.3" d="M115.9 137.2H114.8C114.2 137.5 113.5 137.8 112.5 138V138.9H114.5V146.7H112V147.8H118.1V146.7H115.9V137.2V137.2Z" fill="#56A4FE"/>
</g>
<g opacity="0.3">
<path opacity="0.3" d="M133.5 137C131.3 137 130 138.9 130 142.5C130 146.1 131.3 148.1 133.5 148.1C135.6 148.1 136.9 146.1 136.9 142.5C137 138.9 135.7 137 133.5 137ZM133.5 146.9C132.2 146.9 131.4 145.6 131.4 142.4C131.4 139.3 132.2 138 133.5 138C134.8 138 135.6 139.3 135.6 142.4C135.6 145.6 134.8 146.9 133.5 146.9Z" fill="#56A4FE"/>
</g>
<g opacity="0.3">
<path opacity="0.3" d="M97.6 137C95.4 137 94.1 138.9 94.1 142.5C94.1 146.1 95.4 148.1 97.6 148.1C99.7 148.1 101 146.1 101 142.5C101.1 138.9 99.8 137 97.6 137ZM97.6 146.9C96.3 146.9 95.5 145.6 95.5 142.4C95.5 139.3 96.3 138 97.6 138C98.9 138 99.7 139.3 99.7 142.4C99.7 145.6 98.9 146.9 97.6 146.9Z" fill="#56A4FE"/>
</g>
<g opacity="0.3">
<path opacity="0.3" d="M81 155.9H80C79.4 156.3 78.7 156.5 77.7 156.7V157.6H79.7V165.4H77.2V166.5H83.3V165.4H81V155.9Z" fill="#56A4FE"/>
</g>
<g opacity="0.3">
<path opacity="0.3" d="M134.5 155.9H133.4C132.8 156.3 132.1 156.5 131.1 156.7V157.6H133.1V165.4H130.6V166.5H136.7V165.4H134.5V155.9Z" fill="#56A4FE"/>
</g>
<g opacity="0.3">
<path opacity="0.3" d="M97.6 155.7C95.4 155.7 94.1 157.6 94.1 161.2C94.1 164.8 95.4 166.8 97.6 166.8C99.7 166.8 101 164.8 101 161.2C101.1 157.7 99.8 155.7 97.6 155.7ZM97.6 165.7C96.3 165.7 95.5 164.4 95.5 161.2C95.5 158.1 96.3 156.8 97.6 156.8C98.9 156.8 99.7 158.1 99.7 161.2C99.7 164.3 98.9 165.7 97.6 165.7Z" fill="#56A4FE"/>
</g>
<g opacity="0.3">
<path opacity="0.3" d="M80 174.5C77.8 174.5 76.5 176.4 76.5 180C76.5 183.6 77.8 185.6 80 185.6C82.1 185.6 83.4 183.6 83.4 180C83.5 176.4 82.2 174.5 80 174.5ZM80 184.4C78.7 184.4 77.9 183.1 77.9 179.9C77.9 176.8 78.7 175.5 80 175.5C81.3 175.5 82.1 176.8 82.1 179.9C82.1 183.1 81.3 184.4 80 184.4Z" fill="#56A4FE"/>
</g>
<g opacity="0.3">
<path opacity="0.3" d="M115.9 174.7H114.8C114.2 175.1 113.5 175.3 112.5 175.5V176.4H114.5V184.2H112V185.3H118.1V184.2H115.9V174.7V174.7Z" fill="#56A4FE"/>
</g>
<g opacity="0.3">
<path opacity="0.3" d="M134.5 174.7H133.4C132.8 175.1 132.1 175.3 131.1 175.5V176.4H133.1V184.2H130.6V185.3H136.7V184.2H134.5V174.7Z" fill="#56A4FE"/>
</g>
<g opacity="0.3">
<g opacity="0.3">
<path opacity="0.3" d="M97.6 174.5C95.4 174.5 94.1 176.4 94.1 180C94.1 183.6 95.4 185.6 97.6 185.6C99.7 185.6 101 183.6 101 180C101.1 176.4 99.8 174.5 97.6 174.5ZM97.6 184.4C96.3 184.4 95.5 183.1 95.5 179.9C95.5 176.8 96.3 175.5 97.6 175.5C98.9 175.5 99.7 176.8 99.7 179.9C99.7 183.1 98.9 184.4 97.6 184.4Z" fill="#56A4FE"/>
</g>
</g>
<g opacity="0.3">
<path opacity="0.3" d="M151.7 174.5C149.5 174.5 148.2 176.4 148.2 180C148.2 183.6 149.5 185.6 151.7 185.6C153.8 185.6 155.1 183.6 155.1 180C155.1 176.4 153.8 174.5 151.7 174.5ZM151.7 184.4C150.4 184.4 149.6 183.1 149.6 179.9C149.6 176.8 150.4 175.5 151.7 175.5C153 175.5 153.8 176.8 153.8 179.9C153.8 183.1 152.9 184.4 151.7 184.4Z" fill="#56A4FE"/>
</g>
<g opacity="0.3">
<path opacity="0.3" d="M170.2 174.5C168 174.5 166.7 176.4 166.7 180C166.7 183.6 168 185.6 170.2 185.6C172.3 185.6 173.6 183.6 173.6 180C173.6 176.4 172.3 174.5 170.2 174.5ZM170.2 184.4C168.9 184.4 168.1 183.1 168.1 179.9C168.1 176.8 168.9 175.5 170.2 175.5C171.5 175.5 172.3 176.8 172.3 179.9C172.2 183.1 171.4 184.4 170.2 184.4Z" fill="#56A4FE"/>
</g>
<g opacity="0.3">
<g opacity="0.3">
<path opacity="0.3" d="M81 193.5H80C79.4 193.8 78.7 194.1 77.7 194.3V195.2H79.7V203H77.2V204.1H83.3V203H81V193.5Z" fill="#56A4FE"/>
</g>
</g>
<g opacity="0.3">
<path opacity="0.3" d="M133.5 193.3C131.3 193.3 130 195.2 130 198.8C130 202.4 131.3 204.4 133.5 204.4C135.6 204.4 136.9 202.4 136.9 198.8C137 195.2 135.7 193.3 133.5 193.3ZM133.5 203.2C132.2 203.2 131.4 201.9 131.4 198.7C131.4 195.6 132.2 194.3 133.5 194.3C134.8 194.3 135.6 195.6 135.6 198.7C135.6 201.9 134.8 203.2 133.5 203.2Z" fill="#56A4FE"/>
</g>
<g opacity="0.3">
<path opacity="0.3" d="M97.6 193.3C95.4 193.3 94.1 195.2 94.1 198.8C94.1 202.4 95.4 204.4 97.6 204.4C99.7 204.4 101 202.4 101 198.8C101.1 195.2 99.8 193.3 97.6 193.3ZM97.6 203.2C96.3 203.2 95.5 201.9 95.5 198.7C95.5 195.6 96.3 194.3 97.6 194.3C98.9 194.3 99.7 195.6 99.7 198.7C99.7 201.9 98.9 203.2 97.6 203.2Z" fill="#56A4FE"/>
</g>
<g opacity="0.3">
<path opacity="0.3" d="M151.7 193.3C149.5 193.3 148.2 195.2 148.2 198.8C148.2 202.4 149.5 204.4 151.7 204.4C153.8 204.4 155.1 202.4 155.1 198.8C155.1 195.2 153.8 193.3 151.7 193.3ZM151.7 203.2C150.4 203.2 149.6 201.9 149.6 198.7C149.6 195.6 150.4 194.3 151.7 194.3C153 194.3 153.8 195.6 153.8 198.7C153.8 201.9 152.9 203.2 151.7 203.2Z" fill="#56A4FE"/>
</g>
</g>
<g opacity="0.3">
<g opacity="0.3">
<path opacity="0.3" d="M81 211.5H80C79.4 211.8 78.7 212.1 77.7 212.3V213.2H79.7V221H77.2V222.1H83.3V221H81V211.5Z" fill="#56A4FE"/>
</g>
<g opacity="0.3">
<path opacity="0.3" d="M115.9 211.5H114.8C114.2 211.8 113.5 212.1 112.5 212.3V213.2H114.5V221H112V222.1H118.1V221H115.9V211.5V211.5Z" fill="#56A4FE"/>
</g>
<g opacity="0.3">
<path opacity="0.3" d="M134.5 211.5H133.4C132.8 211.8 132.1 212.1 131.1 212.3V213.2H133.1V221H130.6V222.1H136.7V221H134.5V211.5Z" fill="#56A4FE"/>
</g>
<g opacity="0.3">
<path opacity="0.3" d="M97.6 211.3C95.4 211.3 94.1 213.2 94.1 216.8C94.1 220.4 95.4 222.4 97.6 222.4C99.7 222.4 101 220.4 101 216.8C101.1 213.2 99.8 211.3 97.6 211.3ZM97.6 221.2C96.3 221.2 95.5 219.9 95.5 216.7C95.5 213.6 96.3 212.3 97.6 212.3C98.9 212.3 99.7 213.6 99.7 216.7C99.7 219.9 98.9 221.2 97.6 221.2Z" fill="#56A4FE"/>
</g>
<g opacity="0.3">
<path opacity="0.3" d="M151.7 211.3C149.5 211.3 148.2 213.2 148.2 216.8C148.2 220.4 149.5 222.4 151.7 222.4C153.8 222.4 155.1 220.4 155.1 216.8C155.1 213.2 153.8 211.3 151.7 211.3ZM151.7 221.2C150.4 221.2 149.6 219.9 149.6 216.7C149.6 213.6 150.4 212.3 151.7 212.3C153 212.3 153.8 213.6 153.8 216.7C153.8 219.9 152.9 221.2 151.7 221.2Z" fill="#56A4FE"/>
</g>
<g opacity="0.3">
<path opacity="0.3" d="M171.1 211.5H170C169.4 211.8 168.7 212.1 167.7 212.3V213.2H169.7V221H167.2V222.1H173.3V221H171.1V211.5Z" fill="#56A4FE"/>
</g>
<g opacity="0.3">
<g opacity="0.3">
<path opacity="0.3" d="M80 230.1C77.8 230.1 76.5 232 76.5 235.6C76.5 239.2 77.8 241.2 80 241.2C82.1 241.2 83.4 239.2 83.4 235.6C83.5 232 82.2 230.1 80 230.1ZM80 240C78.7 240 77.9 238.7 77.9 235.5C77.9 232.4 78.7 231.1 80 231.1C81.3 231.1 82.1 232.4 82.1 235.5C82.1 238.7 81.3 240 80 240Z" fill="#56A4FE"/>
</g>
</g>
<g opacity="0.3">
<path opacity="0.3" d="M115.9 230.3H114.8C114.2 230.6 113.5 230.9 112.5 231.1V232H114.5V239.8H112V240.9H118.1V239.8H115.9V230.3V230.3Z" fill="#56A4FE"/>
</g>
<g opacity="0.3">
<g opacity="0.3">
<path opacity="0.3" d="M133.5 230.1C131.3 230.1 130 232 130 235.6C130 239.2 131.3 241.2 133.5 241.2C135.6 241.2 136.9 239.2 136.9 235.6C137 232 135.7 230.1 133.5 230.1ZM133.5 240C132.2 240 131.4 238.7 131.4 235.5C131.4 232.4 132.2 231.1 133.5 231.1C134.8 231.1 135.6 232.4 135.6 235.5C135.6 238.7 134.8 240 133.5 240Z" fill="#56A4FE"/>
</g>
</g>
<g opacity="0.3">
<path opacity="0.3" d="M97.6 230.1C95.4 230.1 94.1 232 94.1 235.6C94.1 239.2 95.4 241.2 97.6 241.2C99.7 241.2 101 239.2 101 235.6C101.1 232 99.8 230.1 97.6 230.1ZM97.6 240C96.3 240 95.5 238.7 95.5 235.5C95.5 232.4 96.3 231.1 97.6 231.1C98.9 231.1 99.7 232.4 99.7 235.5C99.7 238.7 98.9 240 97.6 240Z" fill="#56A4FE"/>
</g>
<g opacity="0.3">
<path opacity="0.3" d="M152.7 230.3H151.6C151 230.6 150.3 230.9 149.3 231.1V232H151.3V239.8H148.8V240.9H154.9V239.8H152.7V230.3Z" fill="#56A4FE"/>
</g>
<g opacity="0.3">
<path opacity="0.3" d="M170.2 230.1C168 230.1 166.7 232 166.7 235.6C166.7 239.2 168 241.2 170.2 241.2C172.3 241.2 173.6 239.2 173.6 235.6C173.6 232 172.3 230.1 170.2 230.1ZM170.2 240C168.9 240 168.1 238.7 168.1 235.5C168.1 232.4 168.9 231.1 170.2 231.1C171.5 231.1 172.3 232.4 172.3 235.5C172.2 238.7 171.4 240 170.2 240Z" fill="#56A4FE"/>
</g>
<g opacity="0.3">
<path opacity="0.3" d="M81 249H80C79.4 249.3 78.7 249.6 77.7 249.8V250.7H79.7V258.5H77.2V259.6H83.3V258.5H81V249Z" fill="#56A4FE"/>
</g>
<g opacity="0.3">
<g opacity="0.3">
<path opacity="0.3" d="M114.9 248.8C112.7 248.8 111.4 250.7 111.4 254.3C111.4 257.9 112.7 259.9 114.9 259.9C117 259.9 118.3 257.9 118.3 254.3C118.3 250.8 117 248.8 114.9 248.8ZM114.9 258.8C113.6 258.8 112.8 257.5 112.8 254.3C112.8 251.2 113.6 249.9 114.9 249.9C116.2 249.9 117 251.2 117 254.3C117 257.4 116.1 258.8 114.9 258.8Z" fill="#56A4FE"/>
</g>
</g>
<g opacity="0.3">
<path opacity="0.3" d="M134.5 249H133.4C132.8 249.3 132.1 249.6 131.1 249.8V250.7H133.1V258.5H130.6V259.6H136.7V258.5H134.5V249Z" fill="#56A4FE"/>
</g>
<g opacity="0.3">
<path opacity="0.3" d="M97.6 248.8C95.4 248.8 94.1 250.7 94.1 254.3C94.1 257.9 95.4 259.9 97.6 259.9C99.7 259.9 101 257.9 101 254.3C101.1 250.8 99.8 248.8 97.6 248.8ZM97.6 258.8C96.3 258.8 95.5 257.5 95.5 254.3C95.5 251.2 96.3 249.9 97.6 249.9C98.9 249.9 99.7 251.2 99.7 254.3C99.7 257.4 98.9 258.8 97.6 258.8Z" fill="#56A4FE"/>
</g>
<g opacity="0.3">
<path opacity="0.3" d="M151.7 248.8C149.5 248.8 148.2 250.7 148.2 254.3C148.2 257.9 149.5 259.9 151.7 259.9C153.8 259.9 155.1 257.9 155.1 254.3C155.1 250.8 153.8 248.8 151.7 248.8ZM151.7 258.8C150.4 258.8 149.6 257.5 149.6 254.3C149.6 251.2 150.4 249.9 151.7 249.9C153 249.9 153.8 251.2 153.8 254.3C153.8 257.4 152.9 258.8 151.7 258.8Z" fill="#56A4FE"/>
</g>
<g opacity="0.3">
<path opacity="0.3" d="M171.1 249H170C169.4 249.3 168.7 249.6 167.7 249.8V250.7H169.7V258.5H167.2V259.6H173.3V258.5H171.1V249Z" fill="#56A4FE"/>
</g>
<g opacity="0.3">
<path opacity="0.3" d="M80 267.6C77.8 267.6 76.5 269.5 76.5 273.1C76.5 276.7 77.8 278.7 80 278.7C82.1 278.7 83.4 276.7 83.4 273.1C83.5 269.5 82.2 267.6 80 267.6ZM80 277.5C78.7 277.5 77.9 276.2 77.9 273C77.9 269.9 78.7 268.6 80 268.6C81.3 268.6 82.1 269.9 82.1 273C82.1 276.2 81.3 277.5 80 277.5Z" fill="#56A4FE"/>
</g>
<g opacity="0.3">
<path opacity="0.3" d="M115.9 267.8H114.8C114.2 268.1 113.5 268.4 112.5 268.6V269.5H114.5V277.3H112V278.4H118.1V277.3H115.9V267.8V267.8Z" fill="#56A4FE"/>
</g>
<g opacity="0.3">
<path opacity="0.3" d="M97.6 267.6C95.4 267.6 94.1 269.5 94.1 273.1C94.1 276.7 95.4 278.7 97.6 278.7C99.7 278.7 101 276.7 101 273.1C101.1 269.5 99.8 267.6 97.6 267.6ZM97.6 277.5C96.3 277.5 95.5 276.2 95.5 273C95.5 269.9 96.3 268.6 97.6 268.6C98.9 268.6 99.7 269.9 99.7 273C99.7 276.2 98.9 277.5 97.6 277.5Z" fill="#56A4FE"/>
</g>
<g opacity="0.3">
<path opacity="0.3" d="M151.7 267.6C149.5 267.6 148.2 269.5 148.2 273.1C148.2 276.7 149.5 278.7 151.7 278.7C153.8 278.7 155.1 276.7 155.1 273.1C155.1 269.5 153.8 267.6 151.7 267.6ZM151.7 277.5C150.4 277.5 149.6 276.2 149.6 273C149.6 269.9 150.4 268.6 151.7 268.6C153 268.6 153.8 269.9 153.8 273C153.8 276.2 152.9 277.5 151.7 277.5Z" fill="#56A4FE"/>
</g>
<g opacity="0.3">
<path opacity="0.3" d="M170.2 267.6C168 267.6 166.7 269.5 166.7 273.1C166.7 276.7 168 278.7 170.2 278.7C172.3 278.7 173.6 276.7 173.6 273.1C173.6 269.5 172.3 267.6 170.2 267.6ZM170.2 277.5C168.9 277.5 168.1 276.2 168.1 273C168.1 269.9 168.9 268.6 170.2 268.6C171.5 268.6 172.3 269.9 172.3 273C172.2 276.2 171.4 277.5 170.2 277.5Z" fill="#56A4FE"/>
</g>
</g>
</g>
<g opacity="0.3">
<g opacity="0.3">
<g opacity="0.3">
<path opacity="0.3" d="M189.8 118.4H188.7C188.1 118.7 187.4 119 186.4 119.2V120.1H188.4V127.9H185.9V129H192V127.9H189.8V118.4Z" fill="#56A4FE"/>
</g>
<g opacity="0.3">
<path opacity="0.3" d="M224.6 118.4H223.5C222.9 118.7 222.2 119 221.2 119.2V120.1H223.2V127.9H220.7V129H226.8V127.9H224.6V118.4Z" fill="#56A4FE"/>
</g>
<g opacity="0.3">
<g opacity="0.3">
<path opacity="0.3" d="M243.3 118.4H242.2C241.6 118.7 240.9 119 239.9 119.2V120.1H241.9V127.9H239.4V129H245.5V127.9H243.3V118.4Z" fill="#56A4FE"/>
</g>
</g>
<g opacity="0.3">
<path opacity="0.3" d="M206.4 118.2C204.2 118.2 202.9 120.1 202.9 123.7C202.9 127.3 204.2 129.3 206.4 129.3C208.5 129.3 209.8 127.3 209.8 123.7C209.9 120.1 208.6 118.2 206.4 118.2ZM206.4 128.1C205.1 128.1 204.3 126.8 204.3 123.6C204.3 120.4 205.1 119.2 206.4 119.2C207.7 119.2 208.5 120.5 208.5 123.6C208.5 126.7 207.7 128.1 206.4 128.1Z" fill="#56A4FE"/>
</g>
<g opacity="0.3">
<path opacity="0.3" d="M260.4 118.2C258.2 118.2 256.9 120.1 256.9 123.7C256.9 127.3 258.2 129.3 260.4 129.3C262.5 129.3 263.8 127.3 263.8 123.7C263.9 120.1 262.6 118.2 260.4 118.2ZM260.4 128.1C259.1 128.1 258.3 126.8 258.3 123.6C258.3 120.4 259.1 119.2 260.4 119.2C261.7 119.2 262.5 120.5 262.5 123.6C262.5 126.7 261.7 128.1 260.4 128.1Z" fill="#56A4FE"/>
</g>
<g opacity="0.3">
<path opacity="0.3" d="M224.6 137.2H223.5C222.9 137.6 222.2 137.8 221.2 138V138.9H223.2V146.7H220.7V147.8H226.8V146.7H224.6V137.2Z" fill="#56A4FE"/>
</g>
<g opacity="0.3">
<path opacity="0.3" d="M242.3 137C240.1 137 238.8 138.9 238.8 142.5C238.8 146.1 240.1 148.1 242.3 148.1C244.4 148.1 245.7 146.1 245.7 142.5C245.8 138.9 244.5 137 242.3 137ZM242.3 146.9C241 146.9 240.2 145.6 240.2 142.4C240.2 139.3 241 138 242.3 138C243.6 138 244.4 139.3 244.4 142.4C244.4 145.6 243.6 146.9 242.3 146.9Z" fill="#56A4FE"/>
</g>
<g opacity="0.3">
<path opacity="0.3" d="M261.4 137.2H260.3C259.7 137.6 259 137.8 258 138V138.9H260V146.7H257.5V147.8H263.6V146.7H261.4V137.2Z" fill="#56A4FE"/>
</g>
<g opacity="0.3">
<path opacity="0.3" d="M278.9 137C276.7 137 275.4 138.9 275.4 142.5C275.4 146.1 276.7 148.1 278.9 148.1C281 148.1 282.3 146.1 282.3 142.5C282.4 138.9 281.1 137 278.9 137ZM278.9 146.9C277.6 146.9 276.8 145.6 276.8 142.4C276.8 139.3 277.6 138 278.9 138C280.2 138 281 139.3 281 142.4C281 145.6 280.2 146.9 278.9 146.9Z" fill="#56A4FE"/>
</g>
<g opacity="0.3">
<path opacity="0.3" d="M223.7 155.7C221.5 155.7 220.2 157.6 220.2 161.2C220.2 164.8 221.5 166.8 223.7 166.8C225.8 166.8 227.1 164.8 227.1 161.2C227.1 157.7 225.8 155.7 223.7 155.7ZM223.7 165.7C222.4 165.7 221.6 164.4 221.6 161.2C221.6 158.1 222.4 156.8 223.7 156.8C225 156.8 225.8 158.1 225.8 161.2C225.8 164.3 224.9 165.7 223.7 165.7Z" fill="#56A4FE"/>
</g>
<g opacity="0.3">
<path opacity="0.3" d="M243.3 155.9H242.2C241.6 156.2 240.9 156.5 239.9 156.7V157.6H241.9V165.4H239.4V166.5H245.5V165.4H243.3V155.9Z" fill="#56A4FE"/>
</g>
<g opacity="0.3">
<path opacity="0.3" d="M260.4 155.7C258.2 155.7 256.9 157.6 256.9 161.2C256.9 164.8 258.2 166.8 260.4 166.8C262.5 166.8 263.8 164.8 263.8 161.2C263.9 157.7 262.6 155.7 260.4 155.7ZM260.4 165.7C259.1 165.7 258.3 164.4 258.3 161.2C258.3 158.1 259.1 156.8 260.4 156.8C261.7 156.8 262.5 158.1 262.5 161.2C262.5 164.3 261.7 165.7 260.4 165.7Z" fill="#56A4FE"/>
</g>
<g opacity="0.3">
<path opacity="0.3" d="M279.9 155.9H278.8C278.2 156.2 277.5 156.5 276.5 156.7V157.6H278.5V165.4H276V166.5H282.1V165.4H279.9V155.9V155.9Z" fill="#56A4FE"/>
</g>
<g opacity="0.3">
<path opacity="0.3" d="M188.8 174.5C186.6 174.5 185.3 176.4 185.3 180C185.3 183.6 186.6 185.6 188.8 185.6C190.9 185.6 192.2 183.6 192.2 180C192.3 176.4 191 174.5 188.8 174.5ZM188.8 184.4C187.5 184.4 186.7 183.1 186.7 179.9C186.7 176.8 187.5 175.5 188.8 175.5C190.1 175.5 190.9 176.8 190.9 179.9C190.9 183.1 190.1 184.4 188.8 184.4Z" fill="#56A4FE"/>
</g>
<g opacity="0.3">
<path opacity="0.3" d="M224.6 174.7H223.5C222.9 175 222.2 175.3 221.2 175.5V176.4H223.2V184.2H220.7V185.3H226.8V184.2H224.6V174.7Z" fill="#56A4FE"/>
</g>
<g opacity="0.3">
<path opacity="0.3" d="M243.3 174.7H242.2C241.6 175 240.9 175.3 239.9 175.5V176.4H241.9V184.2H239.4V185.3H245.5V184.2H243.3V174.7Z" fill="#56A4FE"/>
</g>
<g opacity="0.3">
<g opacity="0.3">
<path opacity="0.3" d="M206.4 174.5C204.2 174.5 202.9 176.4 202.9 180C202.9 183.6 204.2 185.6 206.4 185.6C208.5 185.6 209.8 183.6 209.8 180C209.9 176.4 208.6 174.5 206.4 174.5ZM206.4 184.4C205.1 184.4 204.3 183.1 204.3 179.9C204.3 176.8 205.1 175.5 206.4 175.5C207.7 175.5 208.5 176.8 208.5 179.9C208.5 183.1 207.7 184.4 206.4 184.4Z" fill="#56A4FE"/>
</g>
</g>
<g opacity="0.3">
<path opacity="0.3" d="M278.9 174.5C276.7 174.5 275.4 176.4 275.4 180C275.4 183.6 276.7 185.6 278.9 185.6C281 185.6 282.3 183.6 282.3 180C282.4 176.4 281.1 174.5 278.9 174.5ZM278.9 184.4C277.6 184.4 276.8 183.1 276.8 179.9C276.8 176.8 277.6 175.5 278.9 175.5C280.2 175.5 281 176.8 281 179.9C281 183.1 280.2 184.4 278.9 184.4Z" fill="#56A4FE"/>
</g>
</g>
<g opacity="0.3">
<g opacity="0.3">
<path opacity="0.3" d="M189.8 211.5H188.7C188.1 211.8 187.4 212.1 186.4 212.3V213.2H188.4V221H185.9V222.1H192V221H189.8V211.5Z" fill="#56A4FE"/>
</g>
<g opacity="0.3">
<path opacity="0.3" d="M224.6 211.5H223.5C222.9 211.8 222.2 212.1 221.2 212.3V213.2H223.2V221H220.7V222.1H226.8V221H224.6V211.5Z" fill="#56A4FE"/>
</g>
<g opacity="0.3">
<path opacity="0.3" d="M243.3 211.5H242.2C241.6 211.8 240.9 212.1 239.9 212.3V213.2H241.9V221H239.4V222.1H245.5V221H243.3V211.5Z" fill="#56A4FE"/>
</g>
<g opacity="0.3">
<path opacity="0.3" d="M206.4 211.3C204.2 211.3 202.9 213.2 202.9 216.8C202.9 220.4 204.2 222.4 206.4 222.4C208.5 222.4 209.8 220.4 209.8 216.8C209.9 213.2 208.6 211.3 206.4 211.3ZM206.4 221.2C205.1 221.2 204.3 219.9 204.3 216.7C204.3 213.6 205.1 212.3 206.4 212.3C207.7 212.3 208.5 213.6 208.5 216.7C208.5 219.9 207.7 221.2 206.4 221.2Z" fill="#56A4FE"/>
</g>
<g opacity="0.3">
<path opacity="0.3" d="M260.4 211.3C258.2 211.3 256.9 213.2 256.9 216.8C256.9 220.4 258.2 222.4 260.4 222.4C262.5 222.4 263.8 220.4 263.8 216.8C263.9 213.2 262.6 211.3 260.4 211.3ZM260.4 221.2C259.1 221.2 258.3 219.9 258.3 216.7C258.3 213.6 259.1 212.3 260.4 212.3C261.7 212.3 262.5 213.6 262.5 216.7C262.5 219.9 261.7 221.2 260.4 221.2Z" fill="#56A4FE"/>
</g>
<g opacity="0.3">
<path opacity="0.3" d="M279.9 211.5H278.8C278.2 211.8 277.5 212.1 276.5 212.3V213.2H278.5V221H276V222.1H282.1V221H279.9V211.5V211.5Z" fill="#56A4FE"/>
</g>
<g opacity="0.3">
<g opacity="0.3">
<path opacity="0.3" d="M188.8 230.1C186.6 230.1 185.3 232 185.3 235.6C185.3 239.2 186.6 241.2 188.8 241.2C190.9 241.2 192.2 239.2 192.2 235.6C192.3 232 191 230.1 188.8 230.1ZM188.8 240C187.5 240 186.7 238.7 186.7 235.5C186.7 232.4 187.5 231.1 188.8 231.1C190.1 231.1 190.9 232.4 190.9 235.5C190.9 238.7 190.1 240 188.8 240Z" fill="#56A4FE"/>
</g>
</g>
<g opacity="0.3">
<path opacity="0.3" d="M224.6 230.3H223.5C222.9 230.6 222.2 230.9 221.2 231.1V232H223.2V239.8H220.7V240.9H226.8V239.8H224.6V230.3Z" fill="#56A4FE"/>
</g>
<g opacity="0.3">
<g opacity="0.3">
<path opacity="0.3" d="M242.3 230.1C240.1 230.1 238.8 232 238.8 235.6C238.8 239.2 240.1 241.2 242.3 241.2C244.4 241.2 245.7 239.2 245.7 235.6C245.8 232 244.5 230.1 242.3 230.1ZM242.3 240C241 240 240.2 238.7 240.2 235.5C240.2 232.4 241 231.1 242.3 231.1C243.6 231.1 244.4 232.4 244.4 235.5C244.4 238.7 243.6 240 242.3 240Z" fill="#56A4FE"/>
</g>
</g>
<g opacity="0.3">
<path opacity="0.3" d="M206.4 230.1C204.2 230.1 202.9 232 202.9 235.6C202.9 239.2 204.2 241.2 206.4 241.2C208.5 241.2 209.8 239.2 209.8 235.6C209.9 232 208.6 230.1 206.4 230.1ZM206.4 240C205.1 240 204.3 238.7 204.3 235.5C204.3 232.4 205.1 231.1 206.4 231.1C207.7 231.1 208.5 232.4 208.5 235.5C208.5 238.7 207.7 240 206.4 240Z" fill="#56A4FE"/>
</g>
<g opacity="0.3">
<path opacity="0.3" d="M261.4 230.3H260.3C259.7 230.6 259 230.9 258 231.1V232H260V239.8H257.5V240.9H263.6V239.8H261.4V230.3Z" fill="#56A4FE"/>
</g>
<g opacity="0.3">
<g opacity="0.3">
<path opacity="0.3" d="M223.7 248.8C221.5 248.8 220.2 250.7 220.2 254.3C220.2 257.9 221.5 259.9 223.7 259.9C225.8 259.9 227.1 257.9 227.1 254.3C227.1 250.8 225.8 248.8 223.7 248.8ZM223.7 258.8C222.4 258.8 221.6 257.5 221.6 254.3C221.6 251.2 222.4 249.9 223.7 249.9C225 249.9 225.8 251.2 225.8 254.3C225.8 257.4 224.9 258.8 223.7 258.8Z" fill="#56A4FE"/>
</g>
</g>
<g opacity="0.3">
<path opacity="0.3" d="M243.3 249H242.2C241.6 249.3 240.9 249.6 239.9 249.8V250.7H241.9V258.5H239.4V259.6H245.5V258.5H243.3V249Z" fill="#56A4FE"/>
</g>
<g opacity="0.3">
<path opacity="0.3" d="M260.4 248.8C258.2 248.8 256.9 250.7 256.9 254.3C256.9 257.9 258.2 259.9 260.4 259.9C262.5 259.9 263.8 257.9 263.8 254.3C263.9 250.8 262.6 248.8 260.4 248.8ZM260.4 258.8C259.1 258.8 258.3 257.5 258.3 254.3C258.3 251.2 259.1 249.9 260.4 249.9C261.7 249.9 262.5 251.2 262.5 254.3C262.5 257.4 261.7 258.8 260.4 258.8Z" fill="#56A4FE"/>
</g>
<g opacity="0.3">
<path opacity="0.3" d="M279.9 249H278.8C278.2 249.3 277.5 249.6 276.5 249.8V250.7H278.5V258.5H276V259.6H282.1V258.5H279.9V249V249Z" fill="#56A4FE"/>
</g>
<g opacity="0.3">
<path opacity="0.3" d="M188.8 267.6C186.6 267.6 185.3 269.5 185.3 273.1C185.3 276.7 186.6 278.7 188.8 278.7C190.9 278.7 192.2 276.7 192.2 273.1C192.3 269.5 191 267.6 188.8 267.6ZM188.8 277.5C187.5 277.5 186.7 276.2 186.7 273C186.7 269.9 187.5 268.6 188.8 268.6C190.1 268.6 190.9 269.9 190.9 273C190.9 276.2 190.1 277.5 188.8 277.5Z" fill="#56A4FE"/>
</g>
<g opacity="0.3">
<path opacity="0.3" d="M224.6 267.8H223.5C222.9 268.1 222.2 268.4 221.2 268.6V269.5H223.2V277.3H220.7V278.4H226.8V277.3H224.6V267.8Z" fill="#56A4FE"/>
</g>
<g opacity="0.3">
<path opacity="0.3" d="M243.3 267.8H242.2C241.6 268.1 240.9 268.4 239.9 268.6V269.5H241.9V277.3H239.4V278.4H245.5V277.3H243.3V267.8Z" fill="#56A4FE"/>
</g>
<g opacity="0.3">
<path opacity="0.3" d="M206.4 267.6C204.2 267.6 202.9 269.5 202.9 273.1C202.9 276.7 204.2 278.7 206.4 278.7C208.5 278.7 209.8 276.7 209.8 273.1C209.9 269.5 208.6 267.6 206.4 267.6ZM206.4 277.5C205.1 277.5 204.3 276.2 204.3 273C204.3 269.9 205.1 268.6 206.4 268.6C207.7 268.6 208.5 269.9 208.5 273C208.5 276.2 207.7 277.5 206.4 277.5Z" fill="#56A4FE"/>
</g>
<g opacity="0.3">
<path opacity="0.3" d="M260.4 267.6C258.2 267.6 256.9 269.5 256.9 273.1C256.9 276.7 258.2 278.7 260.4 278.7C262.5 278.7 263.8 276.7 263.8 273.1C263.9 269.5 262.6 267.6 260.4 267.6ZM260.4 277.5C259.1 277.5 258.3 276.2 258.3 273C258.3 269.9 259.1 268.6 260.4 268.6C261.7 268.6 262.5 269.9 262.5 273C262.5 276.2 261.7 277.5 260.4 277.5Z" fill="#56A4FE"/>
</g>
<g opacity="0.3">
<path opacity="0.3" d="M278.9 267.6C276.7 267.6 275.4 269.5 275.4 273.1C275.4 276.7 276.7 278.7 278.9 278.7C281 278.7 282.3 276.7 282.3 273.1C282.4 269.5 281.1 267.6 278.9 267.6ZM278.9 277.5C277.6 277.5 276.8 276.2 276.8 273C276.8 269.9 277.6 268.6 278.9 268.6C280.2 268.6 281 269.9 281 273C281 276.2 280.2 277.5 278.9 277.5Z" fill="#56A4FE"/>
</g>
</g>
</g>
<g opacity="0.3">
<g opacity="0.3">
<g opacity="0.3">
<path opacity="0.3" d="M298.6 118.3H297.5C296.9 118.7 296.2 118.9 295.2 119.1V120H297.2V127.8H294.7V128.9H300.8V127.8H298.6V118.3Z" fill="#56A4FE"/>
</g>
<g opacity="0.3">
<path opacity="0.3" d="M333.4 118.3H332.3C331.7 118.7 331 118.9 330 119.1V120H332V127.8H329.5V128.9H335.6V127.8H333.4V118.3Z" fill="#56A4FE"/>
</g>
<g opacity="0.3">
<path opacity="0.3" d="M315.2 118.1C313 118.1 311.7 120 311.7 123.6C311.7 127.2 313 129.2 315.2 129.2C317.3 129.2 318.6 127.2 318.6 123.6C318.6 120 317.3 118.1 315.2 118.1ZM315.2 128C313.9 128 313.1 126.7 313.1 123.5C313.1 120.4 313.9 119.1 315.2 119.1C316.5 119.1 317.3 120.4 317.3 123.5C317.3 126.7 316.4 128 315.2 128Z" fill="#56A4FE"/>
</g>
<g opacity="0.3">
<path opacity="0.3" d="M297.6 136.9C295.4 136.9 294.1 138.8 294.1 142.4C294.1 146 295.4 148 297.6 148C299.7 148 301 146 301 142.4C301 138.8 299.7 136.9 297.6 136.9ZM297.6 146.8C296.3 146.8 295.5 145.5 295.5 142.3C295.5 139.2 296.3 137.9 297.6 137.9C298.9 137.9 299.7 139.2 299.7 142.3C299.7 145.5 298.8 146.8 297.6 146.8Z" fill="#56A4FE"/>
</g>
<g opacity="0.3">
<path opacity="0.3" d="M333.4 137.1H332.3C331.7 137.4 331 137.7 330 137.9V138.8H332V146.6H329.5V147.7H335.6V146.6H333.4V137.1Z" fill="#56A4FE"/>
</g>
<g opacity="0.3">
<path opacity="0.3" d="M351.1 136.9C348.9 136.9 347.6 138.8 347.6 142.4C347.6 146 348.9 148 351.1 148C353.2 148 354.5 146 354.5 142.4C354.5 138.8 353.2 136.9 351.1 136.9ZM351.1 146.8C349.8 146.8 349 145.5 349 142.3C349 139.2 349.8 137.9 351.1 137.9C352.4 137.9 353.2 139.2 353.2 142.3C353.2 145.5 352.3 146.8 351.1 146.8Z" fill="#56A4FE"/>
</g>
<g opacity="0.3">
<path opacity="0.3" d="M315.2 136.9C313 136.9 311.7 138.8 311.7 142.4C311.7 146 313 148 315.2 148C317.3 148 318.6 146 318.6 142.4C318.6 138.8 317.3 136.9 315.2 136.9ZM315.2 146.8C313.9 146.8 313.1 145.5 313.1 142.3C313.1 139.2 313.9 137.9 315.2 137.9C316.5 137.9 317.3 139.2 317.3 142.3C317.3 145.5 316.4 146.8 315.2 146.8Z" fill="#56A4FE"/>
</g>
<g opacity="0.3">
<path opacity="0.3" d="M370.2 137.1H369.1C368.5 137.4 367.8 137.7 366.8 137.9V138.8H368.8V146.6H366.3V147.7H372.4V146.6H370.2V137.1Z" fill="#56A4FE"/>
</g>
<g opacity="0.3">
<path opacity="0.3" d="M387.7 136.9C385.5 136.9 384.2 138.8 384.2 142.4C384.2 146 385.5 148 387.7 148C389.8 148 391.1 146 391.1 142.4C391.1 138.8 389.8 136.9 387.7 136.9ZM387.7 146.8C386.4 146.8 385.6 145.5 385.6 142.3C385.6 139.2 386.4 137.9 387.7 137.9C389 137.9 389.8 139.2 389.8 142.3C389.8 145.5 388.9 146.8 387.7 146.8Z" fill="#56A4FE"/>
</g>
<g opacity="0.3">
<path opacity="0.3" d="M298.6 155.8H297.5C296.9 156.1 296.2 156.4 295.2 156.6V157.5H297.2V165.3H294.7V166.4H300.8V165.3H298.6V155.8Z" fill="#56A4FE"/>
</g>
<g opacity="0.3">
<path opacity="0.3" d="M332.4 155.6C330.2 155.6 328.9 157.5 328.9 161.1C328.9 164.7 330.2 166.7 332.4 166.7C334.5 166.7 335.8 164.7 335.8 161.1C335.9 157.6 334.6 155.6 332.4 155.6ZM332.4 165.6C331.1 165.6 330.3 164.3 330.3 161.1C330.3 158 331.1 156.7 332.4 156.7C333.7 156.7 334.5 158 334.5 161.1C334.5 164.2 333.7 165.6 332.4 165.6Z" fill="#56A4FE"/>
</g>
<g opacity="0.3">
<path opacity="0.3" d="M352.1 155.8H351C350.4 156.1 349.7 156.4 348.7 156.6V157.5H350.7V165.3H348.2V166.4H354.3V165.3H352.1V155.8Z" fill="#56A4FE"/>
</g>
<g opacity="0.3">
<path opacity="0.3" d="M315.2 155.6C313 155.6 311.7 157.5 311.7 161.1C311.7 164.7 313 166.7 315.2 166.7C317.3 166.7 318.6 164.7 318.6 161.1C318.6 157.6 317.3 155.6 315.2 155.6ZM315.2 165.6C313.9 165.6 313.1 164.3 313.1 161.1C313.1 158 313.9 156.7 315.2 156.7C316.5 156.7 317.3 158 317.3 161.1C317.3 164.2 316.4 165.6 315.2 165.6Z" fill="#56A4FE"/>
</g>
<g opacity="0.3">
<path opacity="0.3" d="M369.2 155.6C367 155.6 365.7 157.5 365.7 161.1C365.7 164.7 367 166.7 369.2 166.7C371.3 166.7 372.6 164.7 372.6 161.1C372.7 157.6 371.4 155.6 369.2 155.6ZM369.2 165.6C367.9 165.6 367.1 164.3 367.1 161.1C367.1 158 367.9 156.7 369.2 156.7C370.5 156.7 371.3 158 371.3 161.1C371.3 164.2 370.5 165.6 369.2 165.6Z" fill="#56A4FE"/>
</g>
<g opacity="0.3">
<path opacity="0.3" d="M388.7 155.8H387.6C387 156.1 386.3 156.4 385.3 156.6V157.5H387.3V165.3H384.8V166.4H390.9V165.3H388.7V155.8Z" fill="#56A4FE"/>
</g>
<g opacity="0.3">
<path opacity="0.3" d="M297.6 174.4C295.4 174.4 294.1 176.3 294.1 179.9C294.1 183.5 295.4 185.5 297.6 185.5C299.7 185.5 301 183.5 301 179.9C301 176.3 299.7 174.4 297.6 174.4ZM297.6 184.4C296.3 184.4 295.5 183.1 295.5 179.9C295.5 176.8 296.3 175.5 297.6 175.5C298.9 175.5 299.7 176.8 299.7 179.9C299.7 183 298.8 184.4 297.6 184.4Z" fill="#56A4FE"/>
</g>
<g opacity="0.3">
<path opacity="0.3" d="M333.4 174.6H332.3C331.7 174.9 331 175.2 330 175.4V176.3H332V184.1H329.5V185.2H335.6V184.1H333.4V174.6Z" fill="#56A4FE"/>
</g>
<g opacity="0.3">
<path opacity="0.3" d="M352.1 174.6H351C350.4 174.9 349.7 175.2 348.7 175.4V176.3H350.7V184.1H348.2V185.2H354.3V184.1H352.1V174.6Z" fill="#56A4FE"/>
</g>
<g opacity="0.3">
<g opacity="0.3">
<path opacity="0.3" d="M315.2 174.4C313 174.4 311.7 176.3 311.7 179.9C311.7 183.5 313 185.5 315.2 185.5C317.3 185.5 318.6 183.5 318.6 179.9C318.6 176.3 317.3 174.4 315.2 174.4ZM315.2 184.4C313.9 184.4 313.1 183.1 313.1 179.9C313.1 176.8 313.9 175.5 315.2 175.5C316.5 175.5 317.3 176.8 317.3 179.9C317.3 183 316.4 184.4 315.2 184.4Z" fill="#56A4FE"/>
</g>
</g>
<g opacity="0.3">
<path opacity="0.3" d="M369.2 174.4C367 174.4 365.7 176.3 365.7 179.9C365.7 183.5 367 185.5 369.2 185.5C371.3 185.5 372.6 183.5 372.6 179.9C372.7 176.3 371.4 174.4 369.2 174.4ZM369.2 184.4C367.9 184.4 367.1 183.1 367.1 179.9C367.1 176.8 367.9 175.5 369.2 175.5C370.5 175.5 371.3 176.8 371.3 179.9C371.3 183 370.5 184.4 369.2 184.4Z" fill="#56A4FE"/>
</g>
<g opacity="0.3">
<path opacity="0.3" d="M387.7 174.4C385.5 174.4 384.2 176.3 384.2 179.9C384.2 183.5 385.5 185.5 387.7 185.5C389.8 185.5 391.1 183.5 391.1 179.9C391.1 176.3 389.8 174.4 387.7 174.4ZM387.7 184.4C386.4 184.4 385.6 183.1 385.6 179.9C385.6 176.8 386.4 175.5 387.7 175.5C389 175.5 389.8 176.8 389.8 179.9C389.8 183 388.9 184.4 387.7 184.4Z" fill="#56A4FE"/>
</g>
</g>
<g opacity="0.3">
<g opacity="0.3">
<path opacity="0.3" d="M298.6 211.4H297.5C296.9 211.8 296.2 212 295.2 212.2V213.1H297.2V220.9H294.7V222H300.8V220.9H298.6V211.4Z" fill="#56A4FE"/>
</g>
<g opacity="0.3">
<path opacity="0.3" d="M333.4 211.4H332.3C331.7 211.8 331 212 330 212.2V213.1H332V220.9H329.5V222H335.6V220.9H333.4V211.4Z" fill="#56A4FE"/>
</g>
<g opacity="0.3">
<path opacity="0.3" d="M352.1 211.4H351C350.4 211.8 349.7 212 348.7 212.2V213.1H350.7V220.9H348.2V222H354.3V220.9H352.1V211.4Z" fill="#56A4FE"/>
</g>
<g opacity="0.3">
<path opacity="0.3" d="M315.2 211.2C313 211.2 311.7 213.1 311.7 216.7C311.7 220.3 313 222.3 315.2 222.3C317.3 222.3 318.6 220.3 318.6 216.7C318.6 213.1 317.3 211.2 315.2 211.2ZM315.2 221.2C313.9 221.2 313.1 219.9 313.1 216.7C313.1 213.6 313.9 212.3 315.2 212.3C316.5 212.3 317.3 213.6 317.3 216.7C317.3 219.8 316.4 221.2 315.2 221.2Z" fill="#56A4FE"/>
</g>
<g opacity="0.3">
<path opacity="0.3" d="M369.2 211.2C367 211.2 365.7 213.1 365.7 216.7C365.7 220.3 367 222.3 369.2 222.3C371.3 222.3 372.6 220.3 372.6 216.7C372.7 213.1 371.4 211.2 369.2 211.2ZM369.2 221.2C367.9 221.2 367.1 219.9 367.1 216.7C367.1 213.6 367.9 212.3 369.2 212.3C370.5 212.3 371.3 213.6 371.3 216.7C371.3 219.8 370.5 221.2 369.2 221.2Z" fill="#56A4FE"/>
</g>
<g opacity="0.3">
<path opacity="0.3" d="M388.7 211.4H387.6C387 211.8 386.3 212 385.3 212.2V213.1H387.3V220.9H384.8V222H390.9V220.9H388.7V211.4Z" fill="#56A4FE"/>
</g>
<g opacity="0.3">
<g opacity="0.3">
<path opacity="0.3" d="M297.6 230C295.4 230 294.1 231.9 294.1 235.5C294.1 239.1 295.4 241.1 297.6 241.1C299.7 241.1 301 239.1 301 235.5C301 231.9 299.7 230 297.6 230ZM297.6 239.9C296.3 239.9 295.5 238.6 295.5 235.4C295.5 232.3 296.3 231 297.6 231C298.9 231 299.7 232.3 299.7 235.4C299.7 238.6 298.8 239.9 297.6 239.9Z" fill="#56A4FE"/>
</g>
</g>
<g opacity="0.3">
<g opacity="0.3">
<path opacity="0.3" d="M351.1 230C348.9 230 347.6 231.9 347.6 235.5C347.6 239.1 348.9 241.1 351.1 241.1C353.2 241.1 354.5 239.1 354.5 235.5C354.5 231.9 353.2 230 351.1 230ZM351.1 239.9C349.8 239.9 349 238.6 349 235.4C349 232.3 349.8 231 351.1 231C352.4 231 353.2 232.3 353.2 235.4C353.2 238.6 352.3 239.9 351.1 239.9Z" fill="#56A4FE"/>
</g>
</g>
<g opacity="0.3">
<path opacity="0.3" d="M370.2 230.2H369.1C368.5 230.5 367.8 230.8 366.8 231V231.9H368.8V239.7H366.3V240.8H372.4V239.7H370.2V230.2Z" fill="#56A4FE"/>
</g>
<g opacity="0.3">
<path opacity="0.3" d="M387.7 230C385.5 230 384.2 231.9 384.2 235.5C384.2 239.1 385.5 241.1 387.7 241.1C389.8 241.1 391.1 239.1 391.1 235.5C391.1 231.9 389.8 230 387.7 230ZM387.7 239.9C386.4 239.9 385.6 238.6 385.6 235.4C385.6 232.3 386.4 231 387.7 231C389 231 389.8 232.3 389.8 235.4C389.8 238.6 388.9 239.9 387.7 239.9Z" fill="#56A4FE"/>
</g>
<g opacity="0.3">
<path opacity="0.3" d="M369.2 248.7C367 248.7 365.7 250.6 365.7 254.2C365.7 257.8 367 259.8 369.2 259.8C371.3 259.8 372.6 257.8 372.6 254.2C372.7 250.7 371.4 248.7 369.2 248.7ZM369.2 258.7C367.9 258.7 367.1 257.4 367.1 254.2C367.1 251.1 367.9 249.8 369.2 249.8C370.5 249.8 371.3 251.1 371.3 254.2C371.3 257.4 370.5 258.7 369.2 258.7Z" fill="#56A4FE"/>
</g>
<g opacity="0.3">
<path opacity="0.3" d="M388.7 248.9H387.6C387 249.2 386.3 249.5 385.3 249.7V250.6H387.3V258.4H384.8V259.5H390.9V258.4H388.7V248.9Z" fill="#56A4FE"/>
</g>
<g opacity="0.3">
<path opacity="0.3" d="M369.2 267.5C367 267.5 365.7 269.4 365.7 273C365.7 276.6 367 278.6 369.2 278.6C371.3 278.6 372.6 276.6 372.6 273C372.7 269.4 371.4 267.5 369.2 267.5ZM369.2 277.5C367.9 277.5 367.1 276.2 367.1 273C367.1 269.9 367.9 268.6 369.2 268.6C370.5 268.6 371.3 269.9 371.3 273C371.3 276.1 370.5 277.5 369.2 277.5Z" fill="#56A4FE"/>
</g>
<g opacity="0.3">
<path opacity="0.3" d="M387.7 267.5C385.5 267.5 384.2 269.4 384.2 273C384.2 276.6 385.5 278.6 387.7 278.6C389.8 278.6 391.1 276.6 391.1 273C391.1 269.4 389.8 267.5 387.7 267.5ZM387.7 277.5C386.4 277.5 385.6 276.2 385.6 273C385.6 269.9 386.4 268.6 387.7 268.6C389 268.6 389.8 269.9 389.8 273C389.8 276.1 388.9 277.5 387.7 277.5Z" fill="#56A4FE"/>
</g>
</g>
</g>
<g opacity="0.3">
<g opacity="0.3">
<g opacity="0.3">
<path opacity="0.3" d="M442.2 118.2H441.1C440.5 118.5 439.8 118.8 438.8 119V119.9H440.8V127.7H438.3V128.8H444.4V127.7H442.2V118.2Z" fill="#56A4FE"/>
</g>
<g opacity="0.3">
<g opacity="0.3">
<path opacity="0.3" d="M460.8 118.2H459.7C459.1 118.5 458.4 118.8 457.4 119V119.9H459.4V127.7H457V128.8H463.1V127.7H460.9V118.2H460.8Z" fill="#56A4FE"/>
</g>
</g>
<g opacity="0.3">
<path opacity="0.3" d="M424 118C421.8 118 420.5 119.9 420.5 123.5C420.5 127.1 421.8 129.1 424 129.1C426.1 129.1 427.4 127.1 427.4 123.5C427.4 119.9 426.1 118 424 118ZM424 128C422.7 128 421.9 126.7 421.9 123.5C421.9 120.4 422.7 119.1 424 119.1C425.3 119.1 426.1 120.4 426.1 123.5C426.1 126.6 425.2 128 424 128Z" fill="#56A4FE"/>
</g>
<g opacity="0.3">
<path opacity="0.3" d="M478 118C475.8 118 474.5 119.9 474.5 123.5C474.5 127.1 475.8 129.1 478 129.1C480.1 129.1 481.4 127.1 481.4 123.5C481.4 119.9 480.1 118 478 118ZM478 128C476.7 128 475.9 126.7 475.9 123.5C475.9 120.4 476.7 119.1 478 119.1C479.3 119.1 480.1 120.4 480.1 123.5C480.1 126.6 479.2 128 478 128Z" fill="#56A4FE"/>
</g>
<g opacity="0.3">
<path opacity="0.3" d="M497.4 118.2H496.3C495.7 118.5 495 118.8 494 119V119.9H496V127.7H493.5V128.8H499.6V127.7H497.4V118.2Z" fill="#56A4FE"/>
</g>
<g opacity="0.3">
<path opacity="0.3" d="M406.4 136.8C404.2 136.8 402.9 138.7 402.9 142.3C402.9 145.9 404.2 147.9 406.4 147.9C408.5 147.9 409.8 145.9 409.8 142.3C409.8 138.7 408.5 136.8 406.4 136.8ZM406.4 146.7C405.1 146.7 404.3 145.4 404.3 142.2C404.3 139.1 405.1 137.8 406.4 137.8C407.7 137.8 408.5 139.1 408.5 142.2C408.5 145.4 407.6 146.7 406.4 146.7Z" fill="#56A4FE"/>
</g>
<g opacity="0.3">
<path opacity="0.3" d="M442.2 137H441.1C440.5 137.4 439.8 137.6 438.8 137.8V138.7H440.8V146.5H438.3V147.6H444.4V146.5H442.2V137Z" fill="#56A4FE"/>
</g>
<g opacity="0.3">
<path opacity="0.3" d="M459.9 136.8C457.7 136.8 456.4 138.7 456.4 142.3C456.4 145.9 457.7 147.9 459.9 147.9C462 147.9 463.3 145.9 463.3 142.3C463.3 138.7 462 136.8 459.9 136.8ZM459.9 146.7C458.6 146.7 457.8 145.4 457.8 142.2C457.8 139.1 458.6 137.8 459.9 137.8C461.2 137.8 462 139.1 462 142.2C462 145.4 461.1 146.7 459.9 146.7Z" fill="#56A4FE"/>
</g>
<g opacity="0.3">
<path opacity="0.3" d="M424 136.8C421.8 136.8 420.5 138.7 420.5 142.3C420.5 145.9 421.8 147.9 424 147.9C426.1 147.9 427.4 145.9 427.4 142.3C427.4 138.7 426.1 136.8 424 136.8ZM424 146.7C422.7 146.7 421.9 145.4 421.9 142.2C421.9 139.1 422.7 137.8 424 137.8C425.3 137.8 426.1 139.1 426.1 142.2C426.1 145.4 425.2 146.7 424 146.7Z" fill="#56A4FE"/>
</g>
<g opacity="0.3">
<path opacity="0.3" d="M479 137H477.9C477.3 137.4 476.6 137.6 475.6 137.8V138.7H477.6V146.5H475.1V147.6H481.2V146.5H479V137Z" fill="#56A4FE"/>
</g>
<g opacity="0.3">
<path opacity="0.3" d="M496.5 136.8C494.3 136.8 493 138.7 493 142.3C493 145.9 494.3 147.9 496.5 147.9C498.6 147.9 499.9 145.9 499.9 142.3C499.9 138.7 498.6 136.8 496.5 136.8ZM496.5 146.7C495.2 146.7 494.4 145.4 494.4 142.2C494.4 139.1 495.2 137.8 496.5 137.8C497.8 137.8 498.6 139.1 498.6 142.2C498.6 145.4 497.7 146.7 496.5 146.7Z" fill="#56A4FE"/>
</g>
<g opacity="0.3">
<path opacity="0.3" d="M407.3 155.8H406.2C405.6 156.1 404.9 156.4 403.9 156.6V157.5H405.9V165.3H403.4V166.4H409.5V165.3H407.3V155.8Z" fill="#56A4FE"/>
</g>
<g opacity="0.3">
<path opacity="0.3" d="M441.2 155.6C439 155.6 437.7 157.5 437.7 161.1C437.7 164.7 439 166.7 441.2 166.7C443.3 166.7 444.6 164.7 444.6 161.1C444.7 157.5 443.4 155.6 441.2 155.6ZM441.2 165.5C439.9 165.5 439.1 164.2 439.1 161C439.1 157.9 439.9 156.6 441.2 156.6C442.5 156.6 443.3 157.9 443.3 161C443.3 164.2 442.5 165.5 441.2 165.5Z" fill="#56A4FE"/>
</g>
<g opacity="0.3">
<path opacity="0.3" d="M460.8 155.8H459.7C459.1 156.1 458.4 156.4 457.4 156.6V157.5H459.4V165.3H457V166.4H463.1V165.3H460.9V155.8H460.8Z" fill="#56A4FE"/>
</g>
<g opacity="0.3">
<path opacity="0.3" d="M424 155.6C421.8 155.6 420.5 157.5 420.5 161.1C420.5 164.7 421.8 166.7 424 166.7C426.1 166.7 427.4 164.7 427.4 161.1C427.4 157.5 426.1 155.6 424 155.6ZM424 165.5C422.7 165.5 421.9 164.2 421.9 161C421.9 157.9 422.7 156.6 424 156.6C425.3 156.6 426.1 157.9 426.1 161C426.1 164.2 425.2 165.5 424 165.5Z" fill="#56A4FE"/>
</g>
<g opacity="0.3">
<path opacity="0.3" d="M478 155.6C475.8 155.6 474.5 157.5 474.5 161.1C474.5 164.7 475.8 166.7 478 166.7C480.1 166.7 481.4 164.7 481.4 161.1C481.4 157.5 480.1 155.6 478 155.6ZM478 165.5C476.7 165.5 475.9 164.2 475.9 161C475.9 157.9 476.7 156.6 478 156.6C479.3 156.6 480.1 157.9 480.1 161C480.1 164.2 479.2 165.5 478 165.5Z" fill="#56A4FE"/>
</g>
<g opacity="0.3">
<path opacity="0.3" d="M497.4 155.8H496.3C495.7 156.1 495 156.4 494 156.6V157.5H496V165.3H493.5V166.4H499.6V165.3H497.4V155.8Z" fill="#56A4FE"/>
</g>
<g opacity="0.3">
<path opacity="0.3" d="M406.4 174.3C404.2 174.3 402.9 176.2 402.9 179.8C402.9 183.4 404.2 185.4 406.4 185.4C408.5 185.4 409.8 183.4 409.8 179.8C409.8 176.2 408.5 174.3 406.4 174.3ZM406.4 184.3C405.1 184.3 404.3 183 404.3 179.8C404.3 176.7 405.1 175.4 406.4 175.4C407.7 175.4 408.5 176.7 408.5 179.8C408.5 182.9 407.6 184.3 406.4 184.3Z" fill="#56A4FE"/>
</g>
<g opacity="0.3">
<path opacity="0.3" d="M442.2 174.5H441.1C440.5 174.8 439.8 175.1 438.8 175.3V176.2H440.8V184H438.3V185.1H444.4V184H442.2V174.5Z" fill="#56A4FE"/>
</g>
<g opacity="0.3">
<path opacity="0.3" d="M460.8 174.5H459.7C459.1 174.8 458.4 175.1 457.4 175.3V176.2H459.4V184H457V185.1H463.1V184H460.9V174.5H460.8Z" fill="#56A4FE"/>
</g>
<g opacity="0.3">
<g opacity="0.3">
<path opacity="0.3" d="M424 174.3C421.8 174.3 420.5 176.2 420.5 179.8C420.5 183.4 421.8 185.4 424 185.4C426.1 185.4 427.4 183.4 427.4 179.8C427.4 176.2 426.1 174.3 424 174.3ZM424 184.3C422.7 184.3 421.9 183 421.9 179.8C421.9 176.7 422.7 175.4 424 175.4C425.3 175.4 426.1 176.7 426.1 179.8C426.1 182.9 425.2 184.3 424 184.3Z" fill="#56A4FE"/>
</g>
</g>
<g opacity="0.3">
<path opacity="0.3" d="M478 174.3C475.8 174.3 474.5 176.2 474.5 179.8C474.5 183.4 475.8 185.4 478 185.4C480.1 185.4 481.4 183.4 481.4 179.8C481.4 176.2 480.1 174.3 478 174.3ZM478 184.3C476.7 184.3 475.9 183 475.9 179.8C475.9 176.7 476.7 175.4 478 175.4C479.3 175.4 480.1 176.7 480.1 179.8C480.1 182.9 479.2 184.3 478 184.3Z" fill="#56A4FE"/>
</g>
<g opacity="0.3">
<path opacity="0.3" d="M496.5 174.3C494.3 174.3 493 176.2 493 179.8C493 183.4 494.3 185.4 496.5 185.4C498.6 185.4 499.9 183.4 499.9 179.8C499.9 176.2 498.6 174.3 496.5 174.3ZM496.5 184.3C495.2 184.3 494.4 183 494.4 179.8C494.4 176.7 495.2 175.4 496.5 175.4C497.8 175.4 498.6 176.7 498.6 179.8C498.6 182.9 497.7 184.3 496.5 184.3Z" fill="#56A4FE"/>
</g>
<g opacity="0.3">
<g opacity="0.3">
<path opacity="0.3" d="M407.3 193.3H406.2C405.6 193.6 404.9 193.9 403.9 194.1V195H405.9V202.8H403.4V203.9H409.5V202.8H407.3V193.3Z" fill="#56A4FE"/>
</g>
</g>
<g opacity="0.3">
<path opacity="0.3" d="M442.2 193.3H441.1C440.5 193.6 439.8 193.9 438.8 194.1V195H440.8V202.8H438.3V203.9H444.4V202.8H442.2V193.3Z" fill="#56A4FE"/>
</g>
<g opacity="0.3">
<path opacity="0.3" d="M459.9 193.1C457.7 193.1 456.4 195 456.4 198.6C456.4 202.2 457.7 204.2 459.9 204.2C462 204.2 463.3 202.2 463.3 198.6C463.3 195 462 193.1 459.9 193.1ZM459.9 203C458.6 203 457.8 201.7 457.8 198.5C457.8 195.4 458.6 194.1 459.9 194.1C461.2 194.1 462 195.4 462 198.5C462 201.7 461.1 203 459.9 203Z" fill="#56A4FE"/>
</g>
<g opacity="0.3">
<path opacity="0.3" d="M424 193.1C421.8 193.1 420.5 195 420.5 198.6C420.5 202.2 421.8 204.2 424 204.2C426.1 204.2 427.4 202.2 427.4 198.6C427.4 195 426.1 193.1 424 193.1ZM424 203C422.7 203 421.9 201.7 421.9 198.5C421.9 195.4 422.7 194.1 424 194.1C425.3 194.1 426.1 195.4 426.1 198.5C426.1 201.7 425.2 203 424 203Z" fill="#56A4FE"/>
</g>
<g opacity="0.3">
<path opacity="0.3" d="M478 193.1C475.8 193.1 474.5 195 474.5 198.6C474.5 202.2 475.8 204.2 478 204.2C480.1 204.2 481.4 202.2 481.4 198.6C481.4 195 480.1 193.1 478 193.1ZM478 203C476.7 203 475.9 201.7 475.9 198.5C475.9 195.4 476.7 194.1 478 194.1C479.3 194.1 480.1 195.4 480.1 198.5C480.1 201.7 479.2 203 478 203Z" fill="#56A4FE"/>
</g>
<g opacity="0.3">
<path opacity="0.3" d="M497.4 193.3H496.3C495.7 193.6 495 193.9 494 194.1V195H496V202.8H493.5V203.9H499.6V202.8H497.4V193.3Z" fill="#56A4FE"/>
</g>
</g>
<g opacity="0.3">
<g opacity="0.3">
<path opacity="0.3" d="M407.3 211.3H406.2C405.6 211.7 404.9 211.9 403.9 212.1V213H405.9V220.8H403.4V221.9H409.5V220.8H407.3V211.3Z" fill="#56A4FE"/>
</g>
<g opacity="0.3">
<path opacity="0.3" d="M442.2 211.3H441.1C440.5 211.7 439.8 211.9 438.8 212.1V213H440.8V220.8H438.3V221.9H444.4V220.8H442.2V211.3Z" fill="#56A4FE"/>
</g>
<g opacity="0.3">
<path opacity="0.3" d="M460.8 211.3H459.7C459.1 211.7 458.4 211.9 457.4 212.1V213H459.4V220.8H457V221.9H463.1V220.8H460.9V211.3H460.8Z" fill="#56A4FE"/>
</g>
<g opacity="0.3">
<path opacity="0.3" d="M424 211.1C421.8 211.1 420.5 213 420.5 216.6C420.5 220.2 421.8 222.2 424 222.2C426.1 222.2 427.4 220.2 427.4 216.6C427.4 213 426.1 211.1 424 211.1ZM424 221.1C422.7 221.1 421.9 219.8 421.9 216.6C421.9 213.5 422.7 212.2 424 212.2C425.3 212.2 426.1 213.5 426.1 216.6C426.1 219.7 425.2 221.1 424 221.1Z" fill="#56A4FE"/>
</g>
<g opacity="0.3">
<path opacity="0.3" d="M478 211.1C475.8 211.1 474.5 213 474.5 216.6C474.5 220.2 475.8 222.2 478 222.2C480.1 222.2 481.4 220.2 481.4 216.6C481.4 213 480.1 211.1 478 211.1ZM478 221.1C476.7 221.1 475.9 219.8 475.9 216.6C475.9 213.5 476.7 212.2 478 212.2C479.3 212.2 480.1 213.5 480.1 216.6C480.1 219.7 479.2 221.1 478 221.1Z" fill="#56A4FE"/>
</g>
<g opacity="0.3">
<path opacity="0.3" d="M497.4 211.3H496.3C495.7 211.7 495 211.9 494 212.1V213H496V220.8H493.5V221.9H499.6V220.8H497.4V211.3Z" fill="#56A4FE"/>
</g>
<g opacity="0.3">
<g opacity="0.3">
<path opacity="0.3" d="M406.4 229.9C404.2 229.9 402.9 231.8 402.9 235.4C402.9 239 404.2 241 406.4 241C408.5 241 409.8 239 409.8 235.4C409.8 231.8 408.5 229.9 406.4 229.9ZM406.4 239.8C405.1 239.8 404.3 238.5 404.3 235.3C404.3 232.2 405.1 230.9 406.4 230.9C407.7 230.9 408.5 232.2 408.5 235.3C408.5 238.5 407.6 239.8 406.4 239.8Z" fill="#56A4FE"/>
</g>
</g>
<g opacity="0.3">
<path opacity="0.3" d="M442.2 230.1H441.1C440.5 230.4 439.8 230.7 438.8 230.9V231.8H440.8V239.6H438.3V240.7H444.4V239.6H442.2V230.1Z" fill="#56A4FE"/>
</g>
<g opacity="0.3">
<g opacity="0.3">
<path opacity="0.3" d="M459.9 229.9C457.7 229.9 456.4 231.8 456.4 235.4C456.4 239 457.7 241 459.9 241C462 241 463.3 239 463.3 235.4C463.3 231.8 462 229.9 459.9 229.9ZM459.9 239.8C458.6 239.8 457.8 238.5 457.8 235.3C457.8 232.2 458.6 230.9 459.9 230.9C461.2 230.9 462 232.2 462 235.3C462 238.5 461.1 239.8 459.9 239.8Z" fill="#56A4FE"/>
</g>
</g>
<g opacity="0.3">
<path opacity="0.3" d="M424 229.9C421.8 229.9 420.5 231.8 420.5 235.4C420.5 239 421.8 241 424 241C426.1 241 427.4 239 427.4 235.4C427.4 231.8 426.1 229.9 424 229.9ZM424 239.8C422.7 239.8 421.9 238.5 421.9 235.3C421.9 232.2 422.7 230.9 424 230.9C425.3 230.9 426.1 232.2 426.1 235.3C426.1 238.5 425.2 239.8 424 239.8Z" fill="#56A4FE"/>
</g>
<g opacity="0.3">
<path opacity="0.3" d="M479 230.1H477.9C477.3 230.4 476.6 230.7 475.6 230.9V231.8H477.6V239.6H475.1V240.7H481.2V239.6H479V230.1Z" fill="#56A4FE"/>
</g>
<g opacity="0.3">
<path opacity="0.3" d="M496.5 229.9C494.3 229.9 493 231.8 493 235.4C493 239 494.3 241 496.5 241C498.6 241 499.9 239 499.9 235.4C499.9 231.8 498.6 229.9 496.5 229.9ZM496.5 239.8C495.2 239.8 494.4 238.5 494.4 235.3C494.4 232.2 495.2 230.9 496.5 230.9C497.8 230.9 498.6 232.2 498.6 235.3C498.6 238.5 497.7 239.8 496.5 239.8Z" fill="#56A4FE"/>
</g>
<g opacity="0.3">
<path opacity="0.3" d="M407.3 248.9H406.2C405.6 249.2 404.9 249.5 403.9 249.7V250.6H405.9V258.4H403.4V259.5H409.5V258.4H407.3V248.9Z" fill="#56A4FE"/>
</g>
<g opacity="0.3">
<g opacity="0.3">
<path opacity="0.3" d="M441.2 248.7C439 248.7 437.7 250.6 437.7 254.2C437.7 257.8 439 259.8 441.2 259.8C443.3 259.8 444.6 257.8 444.6 254.2C444.7 250.6 443.4 248.7 441.2 248.7ZM441.2 258.6C439.9 258.6 439.1 257.3 439.1 254.1C439.1 251 439.9 249.7 441.2 249.7C442.5 249.7 443.3 251 443.3 254.1C443.3 257.3 442.5 258.6 441.2 258.6Z" fill="#56A4FE"/>
</g>
</g>
<g opacity="0.3">
<path opacity="0.3" d="M460.8 248.9H459.7C459.1 249.2 458.4 249.5 457.4 249.7V250.6H459.4V258.4H457V259.5H463.1V258.4H460.9V248.9H460.8Z" fill="#56A4FE"/>
</g>
<g opacity="0.3">
<path opacity="0.3" d="M424 248.7C421.8 248.7 420.5 250.6 420.5 254.2C420.5 257.8 421.8 259.8 424 259.8C426.1 259.8 427.4 257.8 427.4 254.2C427.4 250.6 426.1 248.7 424 248.7ZM424 258.6C422.7 258.6 421.9 257.3 421.9 254.1C421.9 251 422.7 249.7 424 249.7C425.3 249.7 426.1 251 426.1 254.1C426.1 257.3 425.2 258.6 424 258.6Z" fill="#56A4FE"/>
</g>
<g opacity="0.3">
<path opacity="0.3" d="M478 248.7C475.8 248.7 474.5 250.6 474.5 254.2C474.5 257.8 475.8 259.8 478 259.8C480.1 259.8 481.4 257.8 481.4 254.2C481.4 250.6 480.1 248.7 478 248.7ZM478 258.6C476.7 258.6 475.9 257.3 475.9 254.1C475.9 251 476.7 249.7 478 249.7C479.3 249.7 480.1 251 480.1 254.1C480.1 257.3 479.2 258.6 478 258.6Z" fill="#56A4FE"/>
</g>
<g opacity="0.3">
<path opacity="0.3" d="M497.4 248.9H496.3C495.7 249.2 495 249.5 494 249.7V250.6H496V258.4H493.5V259.5H499.6V258.4H497.4V248.9Z" fill="#56A4FE"/>
</g>
<g opacity="0.3">
<path opacity="0.3" d="M406.4 267.4C404.2 267.4 402.9 269.3 402.9 272.9C402.9 276.5 404.2 278.5 406.4 278.5C408.5 278.5 409.8 276.5 409.8 272.9C409.8 269.3 408.5 267.4 406.4 267.4ZM406.4 277.4C405.1 277.4 404.3 276.1 404.3 272.9C404.3 269.8 405.1 268.5 406.4 268.5C407.7 268.5 408.5 269.8 408.5 272.9C408.5 276 407.6 277.4 406.4 277.4Z" fill="#56A4FE"/>
</g>
<g opacity="0.3">
<path opacity="0.3" d="M442.2 267.6H441.1C440.5 267.9 439.8 268.2 438.8 268.4V269.3H440.8V277.1H438.3V278.2H444.4V277.1H442.2V267.6Z" fill="#56A4FE"/>
</g>
<g opacity="0.3">
<path opacity="0.3" d="M460.8 267.6H459.7C459.1 267.9 458.4 268.2 457.4 268.4V269.3H459.4V277.1H457V278.2H463.1V277.1H460.9V267.6H460.8Z" fill="#56A4FE"/>
</g>
<g opacity="0.3">
<path opacity="0.3" d="M424 267.4C421.8 267.4 420.5 269.3 420.5 272.9C420.5 276.5 421.8 278.5 424 278.5C426.1 278.5 427.4 276.5 427.4 272.9C427.4 269.3 426.1 267.4 424 267.4ZM424 277.4C422.7 277.4 421.9 276.1 421.9 272.9C421.9 269.8 422.7 268.5 424 268.5C425.3 268.5 426.1 269.8 426.1 272.9C426.1 276 425.2 277.4 424 277.4Z" fill="#56A4FE"/>
</g>
<g opacity="0.3">
<path opacity="0.3" d="M478 267.4C475.8 267.4 474.5 269.3 474.5 272.9C474.5 276.5 475.8 278.5 478 278.5C480.1 278.5 481.4 276.5 481.4 272.9C481.4 269.3 480.1 267.4 478 267.4ZM478 277.4C476.7 277.4 475.9 276.1 475.9 272.9C475.9 269.8 476.7 268.5 478 268.5C479.3 268.5 480.1 269.8 480.1 272.9C480.1 276 479.2 277.4 478 277.4Z" fill="#56A4FE"/>
</g>
<g opacity="0.3">
<path opacity="0.3" d="M496.5 267.4C494.3 267.4 493 269.3 493 272.9C493 276.5 494.3 278.5 496.5 278.5C498.6 278.5 499.9 276.5 499.9 272.9C499.9 269.3 498.6 267.4 496.5 267.4ZM496.5 277.4C495.2 277.4 494.4 276.1 494.4 272.9C494.4 269.8 495.2 268.5 496.5 268.5C497.8 268.5 498.6 269.8 498.6 272.9C498.6 276 497.7 277.4 496.5 277.4Z" fill="#56A4FE"/>
</g>
</g>
</g>
</g>
<path opacity="0.5" d="M208.6 154.8C208.6 154.6 208.6 154.4 208.6 154.1C208.6 147.9 203.6 142.9 197.4 142.9C196.2 142.9 195.1 143.1 194 143.4V143.3C194 135.7 187.8 129.5 180.2 129.5C174.1 129.5 168.9 133.4 167.1 138.9C165.5 137.9 163.6 137.4 161.6 137.4C155.7 137.4 150.9 142.2 150.9 148.1C150.9 148.8 151 149.4 151.1 150.1C145.9 150.9 141.9 155.3 141.9 160.7C141.9 166.6 146.7 171.4 152.6 171.4H205.8C210.5 171.4 214.3 167.6 214.3 162.9C214.5 159.1 212 155.9 208.6 154.8Z" fill="#AEF4FF"/>
<path opacity="0.5" d="M409.3 115.4C409.3 115.2 409.3 115 409.3 114.7C409.3 108.5 404.3 103.5 398.1 103.5C396.9 103.5 395.8 103.7 394.7 104V103.9C394.7 96.3 388.5 90.1 380.9 90.1C374.8 90.1 369.6 94 367.8 99.5C366.2 98.5 364.3 98 362.3 98C356.4 98 351.6 102.8 351.6 108.7C351.6 109.4 351.7 110 351.8 110.7C346.6 111.5 342.6 115.9 342.6 121.3C342.6 127.2 347.4 132 353.3 132H406.5C411.2 132 415 128.2 415 123.5C415.1 119.7 412.7 116.6 409.3 115.4Z" fill="#AEF4FF"/>
<path opacity="0.3" d="M357.3 260.9C357.3 260.7 357.3 260.4 357.3 260.2C357.3 253.4 351.8 247.9 345 247.9C343.7 247.9 342.5 248.1 341.3 248.5V248.4C341.3 240 334.5 233.2 326.1 233.2C319.4 233.2 313.8 237.5 311.7 243.5C309.9 242.4 307.9 241.8 305.7 241.8C299.2 241.8 294 247.1 294 253.5C294 254.2 294.1 255 294.2 255.7C288.5 256.5 284.2 261.4 284.2 267.3C284.2 273.8 289.5 279 295.9 279H354.2C359.4 279 363.5 274.8 363.5 269.7C363.6 265.7 361 262.2 357.3 260.9Z" stroke="#56A4FE" stroke-width="1.0997" stroke-miterlimit="10"/>
</g>
</g>
<path d="M269.6 317C265.1 317 261.4 313.3 261.4 308.8C261.4 304.3 265.1 300.6 269.6 300.6C274.1 300.6 277.8 304.3 277.8 308.8C277.9 313.3 274.2 317 269.6 317Z" fill="#46A6D1"/>
<path opacity="0.24" d="M388.4 199.4C388.4 202.5 387.1 205.3 385.1 207.3C383.1 209.3 380.3 210.6 377.2 210.6H167.6C161.4 210.6 156.4 205.6 156.4 199.4C156.4 196.3 157.7 193.5 159.7 191.5C161.7 189.5 164.5 188.2 167.6 188.2H377.3C383.4 188.2 388.4 193.2 388.4 199.4Z" fill="#E8505C"/>
<path d="M388.4 199.4C388.4 202.5 387.1 205.3 385.1 207.3C383.1 209.3 380.3 210.6 377.2 210.6H354.6V188.2H377.2C383.4 188.2 388.4 193.2 388.4 199.4Z" fill="#E8505C"/>
<path d="M372.9 194.9C374.8 196.8 374.8 200 372.9 201.9C371 203.8 367.8 203.8 365.9 201.9C364 200 364 196.8 365.9 194.9C367.8 192.9 370.9 192.9 372.9 194.9Z" stroke="white" stroke-width="1.531" stroke-miterlimit="10"/>
<path d="M372.9 201.9L376.8 205.9" stroke="white" stroke-width="1.531" stroke-miterlimit="10" stroke-linecap="round"/>
<path d="M170.5 207.1C170.1 207.1 169.8 206.8 169.8 206.5V192.2C169.8 191.9 170.1 191.6 170.4 191.6H170.5C170.8 191.6 171.1 191.9 171.1 192.2V206.5C171 206.8 170.8 207.1 170.5 207.1Z" fill="#E8505C"/>
<path d="M333.965 55.8953L296.585 65.526L302.847 89.8328L340.227 80.2021L333.965 55.8953Z" fill="#8FBDE2"/>
<path d="M334 55.9L296.6 65.5L311.3 45.4L334 55.9Z" fill="#8FBDE2"/>
<path d="M329.655 54.9675L299.731 62.6771L306.243 87.9523L336.166 80.2428L329.655 54.9675Z" fill="white"/>
<path d="M296.6 65.5L302.9 89.8L318.6 73.7L296.6 65.5Z" fill="#6AADE4"/>
<path d="M334 55.9L340.2 80.2L318.6 73.7L334 55.9Z" fill="#6AADE4"/>
<path d="M340.2 80.2L302.9 89.8L317.6 69.6L340.2 80.2Z" fill="#6AADE4"/>
<path d="M302.9 89.8C304 88 305.2 86.3 306.3 84.6C307.5 82.9 308.6 81.1 309.8 79.4C311 77.7 312.2 76 313.4 74.3L317 69.2L317.3 68.7L317.8 69C321.6 70.8 325.3 72.6 329.1 74.4C331 75.3 332.8 76.3 334.7 77.2C336.5 78.2 338.4 79.1 340.2 80.2C338.2 79.5 336.3 78.7 334.4 77.9C332.5 77.1 330.6 76.3 328.7 75.5C324.9 73.8 321.1 72.1 317.3 70.4L318.2 70.2L314.5 75.2C313.2 76.9 312 78.5 310.7 80.2C309.4 81.9 308.1 83.5 306.9 85.1C305.5 86.6 304.2 88.2 302.9 89.8Z" fill="#8FBDE2"/>
<path d="M17 216.8C16.1 220 12.8 221.9 9.6 221C6.4 220.1 4.5 216.8 5.4 213.6C6.3 210.4 9.6 208.5 12.8 209.4C16 210.3 17.9 213.6 17 216.8Z" fill="#B0E9FF"/>
<path d="M8.6 214.7L10.3 217.6L14.5 214.3" stroke="white" stroke-width="1.2761" stroke-miterlimit="10" stroke-linecap="round" stroke-linejoin="round"/>
<path d="M400.7 70.5C402 73.5 400.6 77.1 397.5 78.4C394.5 79.7 390.9 78.3 389.6 75.2C388.3 72.2 389.7 68.6 392.8 67.3C395.9 66 399.4 67.5 400.7 70.5Z" fill="#6AADE4"/>
<path d="M392.9 74.2L396 75.3L397.2 70.2" stroke="white" stroke-width="1.2761" stroke-miterlimit="10" stroke-linecap="round" stroke-linejoin="round"/>
<path d="M81.6 141.7C81.6 142.9 80.6 143.9 79.4 143.9C78.2 143.9 77.2 142.9 77.2 141.7C77.2 140.5 78.2 139.5 79.4 139.5C80.6 139.5 81.6 140.5 81.6 141.7Z" fill="#8FBDE2"/>
<path d="M50.5 315.6C50.5 316.8 49.5 317.8 48.3 317.8C47.1 317.8 46.1 316.8 46.1 315.6C46.1 314.4 47.1 313.4 48.3 313.4C49.5 313.4 50.5 314.4 50.5 315.6Z" fill="#8FBDE2"/>
<path d="M487.5 123.7C487.5 124.9 486.5 125.9 485.3 125.9C484.1 125.9 483.1 124.9 483.1 123.7C483.1 122.5 484.1 121.5 485.3 121.5C486.5 121.4 487.5 122.4 487.5 123.7Z" fill="#8FBDE2"/>
<path d="M224.9 65.9C224.9 67.1 223.9 68.1 222.7 68.1C221.5 68.1 220.5 67.1 220.5 65.9C220.5 64.7 221.5 63.7 222.7 63.7C223.9 63.7 224.9 64.7 224.9 65.9Z" fill="#8FBDE2"/>
<path d="M94.7 69.1C94.3 69.1 94 68.8 94 68.4V63.4C94 63 94.3 62.7 94.7 62.7C95.1 62.7 95.4 63 95.4 63.4V68.4C95.4 68.8 95.1 69.1 94.7 69.1Z" fill="#8FBDE2"/>
<path d="M97.2 66.6H92.2C91.8 66.6 91.5 66.3 91.5 65.9C91.5 65.5 91.8 65.2 92.2 65.2H97.2C97.6 65.2 97.9 65.5 97.9 65.9C97.9 66.3 97.5 66.6 97.2 66.6Z" fill="#8FBDE2"/>
<path d="M43.2 269H41.4V267.2C41.4 266.8 41.1 266.5 40.7 266.5C40.3 266.5 40 266.8 40 267.2V269H38.2C37.8 269 37.5 269.3 37.5 269.7C37.5 270.1 37.8 270.4 38.2 270.4H40V272.2C40 272.6 40.3 272.9 40.7 272.9C41.1 272.9 41.4 272.6 41.4 272.2V270.4H43.2C43.6 270.4 43.9 270.1 43.9 269.7C43.9 269.4 43.6 269 43.2 269Z" fill="#8FBDE2"/>
<path d="M484.1 193.5H482.3V191.7C482.3 191.3 482 191 481.6 191C481.2 191 480.9 191.3 480.9 191.7V193.5H479.1C478.7 193.5 478.4 193.8 478.4 194.2C478.4 194.6 478.7 194.9 479.1 194.9H480.9V196.7C480.9 197.1 481.2 197.4 481.6 197.4C482 197.4 482.3 197.1 482.3 196.7V194.9H484.1C484.5 194.9 484.8 194.6 484.8 194.2C484.8 193.8 484.5 193.5 484.1 193.5Z" fill="#8FBDE2"/>
<g opacity="0.6">
<g opacity="0.4">
<path opacity="0.4" d="M47.1 122.5C37.5 122.5 29.7 114.7 29.7 105.1C29.7 95.5 37.5 87.7 47.1 87.7C56.7 87.7 64.5 95.5 64.5 105.1C64.5 114.7 56.7 122.5 47.1 122.5ZM47.1 90.4C39 90.4 32.4 97 32.4 105.1C32.4 113.2 39 119.8 47.1 119.8C55.2 119.8 61.8 113.2 61.8 105.1C61.8 97 55.2 90.4 47.1 90.4Z" fill="#6AADE4"/>
</g>
<g opacity="0.6">
<path opacity="0.6" d="M57.7 105.1C57.7 104.6 58.1 104.2 58.6 104.2H60.1C60.6 104.2 61 104.6 61 105.1C61 105.6 60.6 106 60.1 106H58.6C58.1 106 57.7 105.6 57.7 105.1Z" fill="#6AADE4"/>
<path opacity="0.6" d="M33.2 105.1C33.2 104.6 33.6 104.2 34.1 104.2H35.6C36.1 104.2 36.5 104.6 36.5 105.1C36.5 105.6 36.1 106 35.6 106H34.1C33.6 106 33.2 105.6 33.2 105.1Z" fill="#6AADE4"/>
</g>
<g opacity="0.6">
<path opacity="0.6" d="M47.1 115.8C47.6 115.8 48 116.2 48 116.7V118.2C48 118.7 47.6 119.1 47.1 119.1C46.6 119.1 46.2 118.7 46.2 118.2V116.7C46.2 116.2 46.6 115.8 47.1 115.8Z" fill="#6AADE4"/>
<path opacity="0.6" d="M47.1 91.2C47.6 91.2 48 91.6 48 92.1V93.6C48 94.1 47.6 94.5 47.1 94.5C46.6 94.5 46.2 94.1 46.2 93.6V92.1C46.2 91.6 46.6 91.2 47.1 91.2Z" fill="#6AADE4"/>
</g>
<g opacity="0.6">
<path opacity="0.6" d="M39.6 112.6C39.9 112.9 39.9 113.5 39.6 113.8L38.5 114.9C38.2 115.2 37.6 115.2 37.3 114.9C37 114.6 37 114 37.3 113.7L38.4 112.6C38.7 112.3 39.2 112.3 39.6 112.6Z" fill="#6AADE4"/>
<path opacity="0.6" d="M56.9 95.3C57.2 95.6 57.2 96.2 56.9 96.5L55.8 97.6C55.5 97.9 54.9 97.9 54.6 97.6C54.3 97.3 54.3 96.7 54.6 96.4L55.7 95.3C56 94.9 56.6 94.9 56.9 95.3Z" fill="#6AADE4"/>
</g>
<g opacity="0.6">
<path opacity="0.6" d="M39.5 97.6C39.2 97.9 38.6 97.9 38.3 97.6L37.2 96.5C36.9 96.2 36.9 95.6 37.2 95.3C37.5 95 38.1 95 38.4 95.3L39.5 96.4C39.9 96.7 39.9 97.2 39.5 97.6Z" fill="#6AADE4"/>
<path opacity="0.6" d="M56.9 114.9C56.6 115.2 56 115.2 55.7 114.9L54.6 113.8C54.3 113.5 54.3 112.9 54.6 112.6C54.9 112.3 55.5 112.3 55.8 112.6L56.9 113.7C57.3 114 57.3 114.6 56.9 114.9Z" fill="#6AADE4"/>
</g>
</g>
<g opacity="0.6">
<path opacity="0.6" d="M48.5 105.1C48.5 105.9 47.9 106.5 47.1 106.5C46.3 106.5 45.7 105.9 45.7 105.1C45.7 104.3 46.3 103.7 47.1 103.7C47.9 103.7 48.5 104.3 48.5 105.1Z" fill="#6AADE4"/>
<path opacity="0.6" d="M47.1 103.3C46.9 103.3 46.8 103.2 46.8 103V95.6C46.8 95.4 46.9 95.3 47.1 95.3C47.3 95.3 47.4 95.4 47.4 95.6V103C47.4 103.2 47.2 103.3 47.1 103.3Z" fill="#6AADE4"/>
<path opacity="0.6" d="M49.1 105.1C49.1 104.9 49.2 104.8 49.4 104.8H54.3C54.5 104.8 54.6 104.9 54.6 105.1C54.6 105.3 54.5 105.4 54.3 105.4H49.4C49.2 105.4 49.1 105.3 49.1 105.1Z" fill="#6AADE4"/>
</g>
<path d="M216.4 97.1H117.3C116.4 97.1 115.7 96.4 115.7 95.5V74.6C115.7 73.7 116.4 73 117.3 73H216.4C217.3 73 218 73.7 218 74.6V95.4C218 96.3 217.3 97.1 216.4 97.1Z" fill="#DEF0F9"/>
<path d="M213.4 94.6H115.1C114 94.6 113.1 93.7 113.1 92.6V72.6C113.1 71.5 114 70.6 115.1 70.6H213.4C214.5 70.6 215.4 71.5 215.4 72.6V92.6C215.5 93.7 214.6 94.6 213.4 94.6Z" fill="#6AADE4"/>
<path d="M203.3 86.7H125.3C123 86.7 121.2 84.9 121.2 82.6C121.2 80.3 123 78.5 125.3 78.5H203.3C205.6 78.5 207.4 80.3 207.4 82.6C207.4 84.8 205.6 86.7 203.3 86.7Z" fill="white"/>
<path d="M200.398 91.4622C205.289 90.3033 208.313 85.3996 207.154 80.5095C205.995 75.6194 201.092 72.5947 196.202 73.7536C191.311 74.9126 188.287 79.8163 189.446 84.7064C190.605 89.5965 195.508 92.6212 200.398 91.4622Z" fill="white"/>
<path d="M126 80.7V84.5" stroke="#A8A8A8" stroke-width="0.5499" stroke-miterlimit="10" stroke-linecap="round"/>
<path d="M202.1 85.6L200.4 84.1C200.8 83.5 201.1 82.8 201.1 82C201.1 80.1 199.6 78.6 197.7 78.6C195.8 78.6 194.3 80.1 194.3 82C194.3 83.9 195.8 85.4 197.7 85.4C198.5 85.4 199.2 85.1 199.8 84.7L201.5 86.2C201.6 86.3 201.7 86.3 201.8 86.3C201.9 86.3 202 86.2 202.1 86.2C202.3 86.1 202.3 85.8 202.1 85.6ZM197.7 84.6C196.3 84.6 195.2 83.5 195.2 82.1C195.2 80.7 196.3 79.6 197.7 79.6C199.1 79.6 200.2 80.7 200.2 82.1C200.2 83.5 199.1 84.6 197.7 84.6Z" fill="#F9DCE0"/>
<path d="M499.6 231C498.1 231 496.7 231.7 495.7 232.7L491.5 229.8C491.7 229.4 491.8 228.9 491.8 228.4C491.8 226.4 490.2 224.9 488.3 224.9C486.3 224.9 484.8 226.5 484.8 228.4C484.8 230.4 486.4 231.9 488.3 231.9C489.3 231.9 490.1 231.5 490.7 230.9L494.9 233.8C494.5 234.5 494.3 235.4 494.3 236.2C494.3 237.5 494.8 238.6 495.5 239.5L493.4 241.7C492.8 241.3 492.2 241.1 491.5 241.1C489.5 241.1 488 242.7 488 244.6C488 246.6 489.6 248.1 491.5 248.1C493.5 248.1 495 246.5 495 244.6C495 243.8 494.8 243.1 494.3 242.6L496.4 240.4C497.3 241 498.3 241.4 499.5 241.4C502.4 241.4 504.8 239 504.8 236.1C504.8 233.4 502.5 231 499.6 231Z" fill="#6AADE4"/>
<path d="M374.7 399.9C400.05 399.9 420.6 398.288 420.6 396.3C420.6 394.312 400.05 392.7 374.7 392.7C349.35 392.7 328.8 394.312 328.8 396.3C328.8 398.288 349.35 399.9 374.7 399.9Z" fill="#E4EFF4"/>
<path d="M389.8 367.4C387.3 358.7 389.2 349.3 392.1 340.8C392.8 338.7 393.6 336.6 395.2 335.1C396 334.3 397.1 333.7 398.2 333.9C399.8 334.2 400.5 336.1 400.7 337.8C401.8 348.1 395.1 357.5 393.4 367.6" fill="#6AADE4"/>
<path d="M382.6 363.1C382.1 360.5 381.4 357.9 380.2 355.6C379 353.3 377.2 351.2 374.8 350C373.8 349.5 372.4 349.1 371.5 349.9C370.5 350.8 370.8 352.3 371.4 353.5C374.5 359.8 382.4 362.6 385.5 369" fill="#6AADE4"/>
<path d="M386.2 368.2C384.2 364.5 382.3 360.8 381.2 356.7C380.1 352.7 379.9 348.3 381.2 344.4C381.6 343.2 382.7 341.8 383.9 342.2C384.3 342.4 384.7 342.7 385 343.1C387.3 346.1 388.1 349.9 388.5 353.6C388.9 357.3 388.9 361.1 389.7 364.8C389.8 365.3 390 365.9 390.4 366.3C390.8 366.7 391.5 366.9 391.9 366.5C392.1 366.3 392.3 366 392.4 365.7C392.9 364.1 401 347.3 408.3 346.1C408.9 346 409.5 345.9 410.1 346C419.3 347.5 398.6 366.7 398.5 369.5C406 363.1 407.6 361.9 411 361.3C413.6 360.8 418.2 363.2 416.7 366.4C415.7 368.6 413.1 369.6 410.7 370.1C408.1 370.6 405.4 370.8 402.8 371.5C400.2 372.2 397.7 373.6 396.4 376" fill="#6AADE4"/>
<path d="M406.9 371.4C405.5 371.4 404.2 371.6 402.9 372.1C402.6 361.7 394 353.3 383.5 353.3C372.8 353.3 364.1 362 364.1 372.7C364.1 373.2 364.1 373.7 364.2 374.2C362.3 371 358.9 368.9 355 368.9C349.1 368.9 344.3 373.7 344.3 379.6C344.3 380.4 344.4 381.3 344.6 382C343.5 381.4 342.2 381 340.9 381C336.6 381 333.2 384.4 333.2 388.7C333.2 393 336.6 396.4 340.9 396.4C345.2 396.4 401.6 396.4 407 396.4C413.9 396.4 419.5 390.8 419.5 383.9C419.4 377 413.8 371.4 406.9 371.4Z" fill="#EBF8FF"/>
<path d="M89.1 385C110.308 385 127.5 383.657 127.5 382C127.5 380.343 110.308 379 89.1 379C67.8923 379 50.7 380.343 50.7 382C50.7 383.657 67.8923 385 89.1 385Z" fill="#E4EFF4"/>
<path d="M76.5 357.9C78.6 350.6 77 342.8 74.5 335.6C73.9 333.9 73.2 332.1 71.9 330.8C71.2 330.1 70.3 329.6 69.4 329.8C68.1 330.1 67.5 331.7 67.3 333C66.3 341.6 72 349.4 73.4 357.9" fill="#6AADE4"/>
<path d="M82.5 354.3C82.9 352.1 83.5 350 84.5 348C85.5 346.1 87 344.3 89 343.3C89.9 342.8 91 342.6 91.7 343.2C92.5 343.9 92.2 345.2 91.8 346.2C89.2 351.5 82.6 353.8 80.1 359.1L82.5 354.3ZM79.5 358.6C81.1 355.5 82.7 352.4 83.6 349C84.5 345.6 84.7 342 83.6 338.7C83.2 337.7 82.4 336.5 81.4 336.9C81 337 80.7 337.3 80.5 337.7C78.6 340.2 77.9 343.4 77.5 346.5C77.2 349.6 77.1 352.8 76.5 355.8C76.4 356.3 76.3 356.7 76 357.1C75.7 357.4 75.1 357.6 74.7 357.3C74.5 357.1 74.4 356.9 74.3 356.6C73.9 355.2 67.1 341.2 61 340.3C60.5 340.2 60 340.2 59.5 340.2C51.8 341.5 69.1 357.5 69.2 359.9C63 354.5 61.6 353.6 58.8 353C56.6 352.6 52.8 354.5 54 357.2C54.9 359.1 57 359.9 59 360.3C61.2 360.7 63.4 360.9 65.6 361.5C67.8 362.1 69.9 363.3 71 365.2" fill="#6AADE4"/>
<path d="M62.2 361.2C63.4 361.2 64.5 361.4 65.5 361.8C65.8 353 73 346 81.7 346C90.6 346 97.9 353.3 97.9 362.2C97.9 362.6 97.9 363 97.8 363.4C99.4 360.8 102.2 359 105.5 359C110.5 359 114.5 363 114.5 368C114.5 368.7 114.4 369.4 114.3 370C115.2 369.5 116.3 369.2 117.4 369.2C121 369.2 123.8 372.1 123.8 375.6C123.8 379.1 120.9 382 117.4 382C113.9 382 66.7 382 62.2 382C56.4 382 51.7 377.3 51.7 371.5C51.8 365.9 56.4 361.2 62.2 361.2Z" fill="#EBF8FF"/>
<path opacity="0.8" d="M440.4 208C440.4 208.4 440.3 208.8 440.3 209.1C439.9 210 439.7 211.2 439.7 212.1C439.7 212.8 440 213.2 440.4 213.5C439.9 215.5 439.5 218.1 440.5 219.9V207.5C440.4 207.7 440.4 207.8 440.4 208ZM431.6 232.3C431.6 232.3 431.4 232.5 431 232.8C430.9 232.8 430.9 232.9 430.8 232.9C430.8 232.9 430.8 232.9 430.8 233C429.8 233.9 428 235.8 426.3 239.1C424.6 242.4 422.8 249.2 421.5 254.3C421.1 253.9 420.7 253.4 420.2 253L403.9 228.3C413.1 221 419.4 210.7 421.8 199C424.5 185.8 421.9 172.4 414.5 161.1C399.2 137.9 367.9 131.5 344.7 146.8C333.5 154.2 325.8 165.6 323.1 178.8C320.4 192 323 205.4 330.4 216.7C340.1 231.4 356.2 239.3 372.5 239.3C380.6 239.3 388.8 237.4 396.3 233.3L398.6 236.7C398.5 237.2 398.3 238 398.4 238.9C398.3 239.4 398.3 239.9 398.3 240.3C398.3 240.8 398.4 241.2 398.4 241.3C398.8 242.1 400.6 242.9 401.2 243.4C401.8 243.9 402.5 245 402.5 245C402.4 245.3 402.3 245.5 402.5 245.6C403.1 246.2 410.4 256.7 416.4 263.4L429.4 283.1L435.2 291.8C435.1 296.1 435 300.9 435 304.3C434.7 311.2 434.3 321.6 434 327.9C437.7 327 440.5 323.5 440.5 319.3V228C436.4 229 433.4 230.9 431.6 232.3ZM372.9 228.8C350.8 228.8 332.9 210.9 332.9 188.8C332.9 166.7 350.8 148.8 372.9 148.8C395 148.8 412.9 166.7 412.9 188.8C412.9 210.9 395 228.8 372.9 228.8ZM435.7 276.2L427.9 264.4C430.1 261.2 432.2 257.5 434.3 253.6C434.7 255.4 435.1 257.2 435.6 258.6C436.2 260.6 435.9 271.9 435.7 276.2Z" fill="#5FB0E7"/>
<path d="M457.9 395.6C479.826 395.6 497.6 393.72 497.6 391.4C497.6 389.08 479.826 387.2 457.9 387.2C435.974 387.2 418.2 389.08 418.2 391.4C418.2 393.72 435.974 395.6 457.9 395.6Z" fill="#E4EFF4"/>
<path d="M437.9 385.4C437.6 386 436 387.5 433.8 388.5C431.6 389.5 426.9 390 429.5 390.8C432.1 391.7 435.1 391.1 436.7 390.9C438.2 390.7 439.7 390.6 441.5 390.6C443.9 390.6 443.9 390.4 443.6 387.7C443.2 384.1 439 383.3 437.9 385.4Z" fill="#222B70"/>
<path d="M481.3 384.1C481.2 384.8 482.2 387.1 480.3 388.8C478.4 390.5 474.1 392.2 476.9 392.3C479.8 392.4 482.5 391.7 484 391C485.5 390.3 484.3 389.1 486.1 388.6C488.5 387.8 488 386.1 486.8 385C485.2 381.4 481.7 381.6 481.3 384.1Z" fill="#222B70"/>
<path d="M472.2 308.5C472.2 308.5 477.9 291.7 461.7 277.9C461.7 277.9 453 281.4 446.1 281.8C440.6 282.1 437.9 281.6 437.9 281.6C437.9 281.6 437.4 296.5 437.4 304.5L472.2 308.5Z" fill="#023D5F"/>
<path d="M439.6 290.8C438.3 291.3 437.9 295.1 437.7 297.8C437.5 300.4 436.5 327.7 436.1 332.6C436 333.4 436 334.2 436.1 334.9C436 335.3 436 335.8 436 336.3C436.3 344.3 438 369.7 437.9 385.1C437.9 385.1 438.3 386.1 439.1 386.5C440.3 387 442.2 386.7 443.4 386.2C444.5 374 452.4 348.8 447.4 336.6C447.2 336.1 447.1 335.5 447.3 334.9C449.7 327.2 454.5 312.4 455.4 306.5C457.2 296.7 445.9 288.4 439.6 290.8Z" fill="#023D5F"/>
<path d="M474.1 338.7C473.7 338.3 473.5 337.8 473.5 337.2C473.1 328.8 473.2 310 471.9 304C469.7 294.2 458.5 290.2 453.5 294.8C452.5 295.7 452.3 300.9 453.1 303.4C453.9 305.9 460.4 333.8 461.9 338.5C462.1 339.2 462.4 339.8 462.6 340.3C462.7 340.7 462.8 341.2 463 341.7C465.7 349.3 476.7 370.2 481.1 385.1C481.1 385.1 481.5 385.7 482.4 385.8C483.2 385.8 485.6 385.5 487.1 384.4C484.5 372.4 484 349.4 474.1 338.7Z" fill="#023D5F"/>
<path d="M428.8 239C426.1 244.2 423.2 258.1 422.5 260.2C422.5 260.2 429.6 261.9 427.6 268.2C431.1 264 434.2 258.4 437.4 252.5C439 249.5 441.3 250.5 441.3 250.5L434.1 232.4C434 232.3 431.3 234.1 428.8 239Z" fill="#1F8BE0"/>
<path d="M409.3 240.9C409.3 240.9 404 244.8 404.9 245.6C405.7 246.4 421.2 268.6 425.3 268.9C427 269 429.2 267 429.6 264.9C429.8 264.1 429.9 263.3 430 262.4C428.3 256.1 409.3 240.9 409.3 240.9Z" fill="#1F8BE0"/>
<path d="M428.8 239C426.1 244.2 423.2 258.1 422.5 260.2C422.5 260.2 429.6 261.9 427.6 268.2C431.1 264 434.2 258.4 437.4 252.5C439 249.5 441.3 250.5 441.3 250.5L434.1 232.4C434 232.3 431.3 234.1 428.8 239Z" fill="#1F8BE0"/>
<path d="M409.3 240.9C409.3 240.9 404 244.8 404.9 245.6C405.7 246.4 421.2 268.6 425.3 268.9C427 269 429.2 267 429.6 264.9C429.8 264.1 429.9 263.3 430 262.4C428.3 256.1 409.3 240.9 409.3 240.9Z" fill="#1F8BE0"/>
<path d="M401.1 236.1C401.1 236.1 400.7 237.3 400.7 238.9L401.8 237.5L401.1 236.1Z" fill="#F2A181"/>
<path d="M446.5 199.7C445.1 200.1 444.3 202 443.8 203.2C443.2 204.7 442.9 206.3 442.7 207.9C442.6 209 442.5 210.2 442.9 211.2C443.1 211.7 443.5 212.2 443.8 212.6C444 212.9 444.2 213.1 444.5 213.3C444.8 213.5 445.1 213.6 445.4 213.5C445.8 213.3 446 212.8 446.1 212.3C446.9 209.3 447.8 206.3 449.5 203.7" fill="#2C1E56"/>
<path d="M444.9 209.2C444.9 208.2 443.9 207.6 443 208.6C442.3 209.4 442.1 211 442 212.1C442 213.5 443 213.7 443.9 213.9" fill="#FFCCB0"/>
<path d="M433.3 232.9C435.5 231 440.4 227.5 447.9 227.8C453 228 467 228.8 468.6 232.2C469.4 234 470.3 252 469.1 258.2C468.2 262.9 466 274.4 466 277.2C466 280 467.5 281.2 466.8 282C465.2 283.8 454.5 284.6 449.5 284.6C445 284.6 437.4 283.4 437 282C436.4 279.9 437.9 280 438.1 277.7C438.3 275.5 438.9 261 438 258.6C436.5 254.3 435.8 247.3 434.6 244.2C433.7 241.7 431.2 234.6 433.3 232.9Z" fill="#1F8BE0"/>
<path d="M465.1 247.4C465.6 248.5 469.3 254.3 469.3 254.3L469.4 255C469.3 256.2 469.2 257.3 469 258.1C468.1 262.8 465.9 274.3 465.9 277.1C465.9 279.9 467.3 281 466.7 281.9C465.5 283.6 445.3 287.3 446.3 282.7C446.4 282.3 463.2 269.4 463.3 269C464.1 265.3 464.8 262.7 465.1 260C465.9 253.5 464.6 246.3 465.1 247.4Z" fill="#17A59E"/>
<path d="M446.2 221.6C446.2 221.6 446.2 227.5 445.9 227.7C445.7 227.9 444.5 228.5 444.5 228.5C444.5 228.5 445.3 233.6 446.6 233.2C447.9 232.8 456.3 228.6 456.3 228.6C456.3 228.6 455.1 228.1 455.1 227.6C455.1 227.1 456.2 217.9 456.2 217.9" fill="#FFCCB0"/>
<path d="M452 200.3C450.8 200.6 447.5 200 446.6 201.3C445.7 202.6 444.9 205.9 444.6 206.8C443.9 208.6 443.5 210.5 443 212.3C442.4 214.7 441.3 219.1 443.7 221.1C444.4 221.7 444.7 221.9 445.5 222C446.6 222.2 447.7 222.4 448.8 222.6C450.5 222.9 452.4 223.3 454.1 222.7C456.4 222 457.6 218.8 458.2 216.7L461.5 204.5L452 200.3Z" fill="#FFCCB0"/>
<path d="M445.9 235.5C445.9 235.5 445.4 258.3 444.5 272.2L447.9 276.8L450.2 271C450.2 271 451.2 254.2 448 235.6L445.9 235.5Z" fill="white"/>
<path d="M445.2 233.5L445.3 233.8C445.4 234.4 445.7 235 446 235.5L448.1 235.7C448.1 235.7 449.5 235 449.7 234.2C449.9 233.4 447.4 232.1 447.4 232.1L447.1 232.2C446.3 232.4 445.7 232.9 445.2 233.5Z" fill="white"/>
<path d="M455.2 226.2C455.2 226.2 456.5 227 457.6 228.6C456.5 231 454.1 235.3 451.5 237.3C450.3 234 447.3 232.1 447.3 232.1C447.3 232.1 454.5 230.7 455.2 226.2Z" fill="#17A59E"/>
<path d="M447.3 232C447.3 232 444.7 233 443.2 235.9C443.2 235.9 442.7 232 443.8 228.7C443.8 228.7 445.5 226.5 446.1 226.5C445.8 229.2 447.3 232 447.3 232Z" fill="#17A59E"/>
<path d="M445.3 282.7C442.7 283.1 441.8 284 440.4 285.5C440.3 285.6 440.2 285.8 440.2 285.9C440.2 286.1 440.5 286.2 440.7 286.2C441.9 286.4 442.1 285.6 443.2 285.2C443.9 284.9 444.7 284.6 445.4 284.2" fill="#F2A181"/>
<path d="M457.6 318.5C456.1 318.5 454.7 317.8 453.8 316.4L398.6 232.9C397.2 230.8 397.8 228 399.9 226.6C402 225.2 404.8 225.8 406.2 227.9L461.4 311.4C462.8 313.5 462.2 316.3 460.1 317.7C459.3 318.3 458.4 318.5 457.6 318.5Z" fill="#E8505C"/>
<path d="M461.3 316.6C461 317.1 460.6 317.4 460.1 317.8C459.3 318.3 458.4 318.6 457.6 318.6C456.1 318.6 454.7 317.9 453.8 316.5L398.6 233C397.2 230.9 397.8 228.1 399.9 226.7C400.2 226.5 400.4 226.4 400.7 226.3C399.6 227.8 399.5 229.9 400.6 231.5L455.8 315C456.7 316.3 458.1 317 459.6 317C460.1 317 460.7 316.8 461.3 316.6Z" fill="#C6324B"/>
<path opacity="0.2" d="M391.544 228.184C413.078 218.986 423.079 194.072 413.881 172.538C404.682 151.004 379.769 141.004 358.235 150.202C336.701 159.4 326.7 184.314 335.898 205.848C345.097 227.382 370.01 237.382 391.544 228.184Z" fill="white"/>
<path opacity="0.08" d="M407.9 172.5C401.3 166.3 392.4 162.5 382.7 162.5C362.3 162.5 345.8 179 345.8 199.4C345.8 205.4 347.2 211 349.8 216C342.6 209.3 338.2 199.7 338.2 189.1C338.2 168.7 354.7 152.2 375.1 152.2C389.3 152.3 401.8 160.5 407.9 172.5Z" fill="white"/>
<path d="M375 236.6C359.5 236.6 344.2 229.1 335.1 215.2C328.1 204.5 325.6 191.8 328.1 179.3C330.7 166.8 337.9 156 348.6 149C370.6 134.5 400.3 140.5 414.8 162.5C421.8 173.1 424.3 185.9 421.8 198.4C419.2 210.9 412 221.7 401.3 228.7C393.1 234.1 384 236.6 375 236.6ZM374.8 148.6C367.2 148.6 359.5 150.7 352.7 155.2C343.7 161.1 337.6 170.2 335.5 180.7C333.4 191.2 335.4 201.9 341.3 210.9C353.5 229.4 378.5 234.5 397 222.3C406 216.4 412.1 207.3 414.2 196.8C416.3 186.3 414.3 175.6 408.4 166.6C400.7 155 387.9 148.6 374.8 148.6Z" fill="#C6324B"/>
<path d="M375 239.2C358.6 239.2 342.6 231.3 332.9 216.6C325.5 205.4 322.9 191.9 325.6 178.7C328.3 165.5 336 154.2 347.2 146.7C370.4 131.4 401.7 137.8 417 161C424.4 172.2 427 185.7 424.3 198.9C421.6 212.1 413.9 223.4 402.7 230.9C394.1 236.5 384.5 239.2 375 239.2ZM374.8 146.5C366.8 146.5 358.7 148.8 351.5 153.5C342.1 159.7 335.6 169.3 333.3 180.4C331 191.5 333.2 202.8 339.5 212.3C352.4 231.8 378.7 237.2 398.2 224.3C407.6 218.1 414.1 208.5 416.4 197.4C418.7 186.3 416.5 175 410.2 165.5C402.1 153.1 388.6 146.5 374.8 146.5Z" fill="#E8505C"/>
<path d="M452.5 280.7C450.5 281.1 445.2 282.7 444.7 282.9C444 283.2 441.9 284.9 441.3 285.4C439.3 287.4 440.3 288.3 439.5 291C439.5 291.1 439.5 291.3 439.5 291.4C439.5 291.7 439.9 291.9 440.3 291.7C440.5 292 441.1 291.8 441.4 291.5C441.4 291.8 441.8 291.9 442.4 291.6C442.7 291.4 442.7 291.4 443.4 290.8C443.9 290.3 444.6 289.9 445.5 289.5C446.2 289.2 447 288.9 447.6 288.5C448.4 288 449.8 287.8 450.5 285.6C450.7 285.1 451.2 284.8 451.6 284.5C452.7 283.8 453.8 283.2 454.8 282.5" fill="#FFCCB0"/>
<path d="M464.6 243.6C465.4 246.6 468.9 267.3 468.9 267.3L449.2 281.6L450.8 285.9C450.8 285.9 474.3 278 476.2 272.6C478.1 267.2 478 242.8 471.4 234.2C469.3 231.5 465.1 230.1 465.1 230.1" fill="#1F8BE0"/>
<path d="M444.5 288.2C444.5 288.2 444.3 288.4 444 288.7C443.7 289 443.3 289.3 443 289.7C442.8 289.9 442.7 290.1 442.5 290.3C442.3 290.5 442.2 290.7 442 290.8C441.7 291.1 441.5 291.3 441.5 291.3C441.5 291.3 441.6 291.1 441.8 290.7C441.9 290.5 442 290.3 442.2 290.1C442.3 289.9 442.5 289.7 442.7 289.5C442.9 289.3 443.1 289.1 443.3 289C443.5 288.9 443.7 288.7 443.9 288.6C444.2 288.3 444.5 288.2 444.5 288.2Z" fill="#F2A181"/>
<path d="M443.4 286.9C443.4 286.9 443.1 287.1 442.8 287.5C442.6 287.7 442.5 287.9 442.3 288.2C442.2 288.3 442.1 288.5 442 288.6C441.9 288.7 441.8 288.9 441.8 289C441.7 289.3 441.5 289.6 441.4 289.9C441.3 290.2 441.1 290.4 440.9 290.6C440.6 291 440.4 291.3 440.4 291.3C440.4 291.3 440.5 291 440.7 290.5C440.8 290.3 440.9 290 441.1 289.7C441.2 289.4 441.4 289.1 441.5 288.8C441.6 288.7 441.7 288.5 441.8 288.3C441.9 288.2 442 288 442.1 287.9C442.3 287.7 442.5 287.4 442.7 287.3C442.9 287.1 443.1 287 443.2 286.9C443.3 286.9 443.4 286.9 443.4 286.9Z" fill="#F2A181"/>
<path d="M442.1 285.8C442.1 285.8 442.1 285.9 442 286C441.9 286.1 441.8 286.3 441.6 286.5C441.5 286.7 441.3 286.9 441.1 287.2C441 287.3 441 287.5 440.9 287.6L440.7 288C440.5 288.6 440.2 289.2 440.1 289.7C439.9 290.2 439.8 290.5 439.8 290.5C439.8 290.5 439.8 290.2 439.9 289.7C440 289.2 440.2 288.6 440.4 288C440.5 287.7 440.7 287.4 440.9 287.1C441.1 286.9 441.3 286.7 441.5 286.5C441.9 286.1 442.1 285.8 442.1 285.8Z" fill="#F2A181"/>
<path d="M402.9 240.8C402.9 240.8 403.9 238.2 404.2 237.5C404.5 236.8 404.8 236.2 405 236.4C405.2 236.6 405.3 236.8 405.2 237.3C405.1 237.8 404.5 239.5 404.5 239.5" fill="#FFCCB0"/>
<path d="M459.5 214.6C458.7 214.1 458.1 213.7 457.6 214.4C457.3 214.8 457.2 215.3 456.7 215.5C456.2 215.6 455.8 215.2 455.7 214.8C455.6 214.3 455.7 213.9 455.9 213.4C456.2 212.4 456.5 211.4 456.8 210.4C457.1 209.4 457.4 208.4 457 207.4C456.8 206.9 456.4 206.5 456.1 206.2C454.8 205.1 453.2 204.6 451.5 204.2C449.9 203.9 448.2 203.7 446.6 203.2C445.9 203 445.3 202.7 444.7 202.3C443.8 201.6 443.4 200.4 443.4 199.3C443.4 198.2 443.8 197 444.4 196.1C444.5 196.5 444.7 196.9 444.9 197.2C445.1 196.7 445.4 196.2 445.8 195.8C446.3 198.5 457.6 197.6 460.2 198.8C462 199.6 463.5 200.2 463.5 203.1C463.6 203.3 463.7 203.4 463.9 203.6C465.5 205.1 466.2 206.9 466.4 209.6C466.6 212.9 464.7 216.4 462.9 219.1C462.4 219.8 462.2 220.3 461.5 220.8C460.8 221.3 459.7 221.5 458.9 221.4C458.1 221.2 456.5 221.3 456.5 220.5C456.5 219.9 457.8 218.9 458.1 218.4" fill="#2C1E56"/>
<path d="M456.5 217.7C456.5 217.7 456.4 218.3 456.7 218.7C457 219.1 457.6 219 458 218.9C459.2 218.5 460 217.3 460.2 216.1C460.5 214.7 459.7 213.3 458.4 213.6C457.6 213.8 457.2 214.7 457.2 215.5" fill="#FFCCB0"/>
<path d="M446.2 222.1L449.8 222.8C449.8 222.8 448.6 224.2 446.1 224.2" fill="#F2A181"/>
<path d="M404.9 245C404.9 245 404.3 243.9 403.6 243.4C403 242.9 401.2 242 400.8 241.3C400.4 240.6 400.8 236.6 402 236.3C403.2 235.9 404.4 238.9 404.9 240C405.4 241.1 405 242.7 405 242.7L405.8 243.9C405.9 243.9 405.3 244.5 404.9 245Z" fill="#FFCCB0"/>
<path d="M401.1 237.4C401.1 237.4 401.9 235.5 402.2 234.8C402.5 234.1 402.8 233.5 403 233.7C403.2 233.9 403.3 234.2 403.2 234.8C403.1 235.3 402.5 237 402.5 237" fill="#FFCCB0"/>
<path d="M401.7 238.6C401.7 238.6 402.9 235.5 403.3 234.6C403.7 233.7 404.1 233 404.3 233.2C404.5 233.4 404.6 233.7 404.5 234.3C404.4 234.9 403.7 237 403.7 237" fill="#FFCCB0"/>
<path d="M402.5 239.4C402.5 239.4 403.5 236.8 403.8 236.1C404.1 235.4 404.4 234.8 404.6 235C404.8 235.2 404.9 235.4 404.8 235.9C404.7 236.4 404.1 238.1 404.1 238.1" fill="#FFCCB0"/>
<g opacity="0.8">
<g opacity="0.8">
<g opacity="0.8">
<path opacity="0.8" d="M115.7 269.5C115.9 269.7 116 269.8 116 269.8C115.9 269.7 115.8 269.6 115.7 269.5Z" fill="#5FB0E7"/>
</g>
<g opacity="0.8">
<g opacity="0.8">
<path opacity="0.8" d="M138.4 212.9L136.2 212.3C133.6 211.6 130.2 215.9 128.5 221.9C126.8 227.9 127.5 233.4 130.1 234.1L128.8 238.6C128.7 238.6 128.7 238.7 128.7 238.7C128.6 238.7 128.5 238.6 128.5 238.6C128.4 238.6 128.3 238.8 128.2 239.1C127.4 239.8 126.3 240.9 125.7 241.9C125.2 242.8 125 244.7 125 244.7C123.1 249 121.6 253.3 118.6 257.3C118 256.1 117.4 254.7 116.7 253.4C116.9 253.1 117 252.9 117 252.9C114.7 246.5 111.2 236.6 107 235.9C105.6 235.6 104.1 235.5 102.8 235.4C102.5 235 102.3 234.7 102.1 234.2C102.4 233.1 103.2 230.4 103.7 229.9C104.3 229.3 104.9 231.1 107.3 230.4C108.3 230.1 109.1 228.1 109.5 225.7C109.5 225.6 109.5 225.5 109.5 225.5C110 225.4 110.6 225.2 110.8 225.2C111.5 224.8 111.4 224.5 111.1 224.1C110.6 223.2 110.2 222.1 110 221.3C110.1 219.6 110.1 217.8 109.8 216.3C109.9 216.5 109.9 216.6 110 216.8C111 216.1 111 214.4 110.9 213.8C110.7 212.5 110.4 211.6 109.7 210.7C107 206.9 104.8 206.5 102.9 206C101.9 205.8 100.9 205.6 100 205.5V319.4C100 321.9 101 324.2 102.6 325.8C102.6 325.7 102.6 325.7 102.6 325.6C102.6 325.2 102.6 324.7 102.6 324.3C102.6 324.1 102.6 323.9 102.6 323.7C102.6 323.5 102.6 323.3 102.6 323.2C103.1 324.6 103.5 325.9 103.9 327C105.2 327.9 106.8 328.4 108.4 328.4H114.9C115 324.9 114.8 321.2 114.5 317.4C114.6 317.3 114.7 317.3 114.8 317.2C114.9 311.2 114.4 306.4 113.2 298.1C111.4 285.6 109.3 282.8 107.5 277.8C107.5 277.7 107.4 277.5 107.4 277.4C107.6 277.2 107.7 276.9 107.7 276.6C107.8 275.9 106.9 274.2 106.9 273.6C106.5 269.8 106.3 266.2 107.5 264.2C107.9 263.4 108.3 262.8 108.8 262.3C110.9 264.1 113.1 266.1 115.1 267.5C115.2 267.6 115.3 267.7 115.4 267.7C115.8 268 116.1 268.2 116.4 268.3C116.5 268.4 116.7 268.5 116.8 268.5C116.7 268.4 116.6 268.4 116.5 268.3C117.4 268.6 118.1 268.5 118.6 268.2C118.7 268.2 118.8 268.2 118.9 268.2C120.2 268.3 121.4 267.7 122.1 266.6C125.7 260.4 129.7 248.7 130.4 246.7C131.4 246.2 133 244.5 133.2 243.3C133.3 242.9 133.2 242.4 133 242C133.2 241.4 133.1 239.5 132.1 240.3C132.9 239 132.7 237.6 132.4 236.1C132.4 235.9 132.2 235.8 132.1 235.8L132.4 234.6C135 235.3 138.4 231 140.1 225C141.8 219 141 213.6 138.4 212.9Z" fill="#5FB0E7"/>
</g>
</g>
</g>
</g>
<path d="M113.7 264C114.4 262.8 116 261.7 117.7 260.9C113 256.5 102.7 249.3 102.7 249.3L100.9 257.9C105 259.9 110.5 266.3 114.7 268.4C113.9 268 112.2 266.6 113.7 264Z" fill="#F4A07A"/>
<path d="M112.5 269.7C112.4 269.6 112.3 269.5 112.2 269.4C112.4 269.7 112.5 269.7 112.5 269.7Z" fill="#EBF8FF"/>
<path d="M123.1 244.8C120.3 251.1 118.6 257.1 111.5 262.6C111.2 262.8 110.9 263.1 110.6 263.4C111.3 265.2 112.2 266.9 113.3 267.7C115.7 269.5 117.3 267.9 117.8 267.2C117.9 267.1 118 267 118 266.9C119.2 264.9 123.9 253.8 125.5 245.6C123.3 245.9 124 242.8 123.1 244.8Z" fill="#F4A07A"/>
<path d="M123.1 244.8C123.1 244.8 123.3 242.9 123.8 242C124.7 240.3 127.2 238.3 127.2 238.3L126.4 243.6L125.4 245.9L124 246.1L123.1 244.8Z" fill="#F4A07A"/>
<path d="M66 391.4C66 393.4 81.5 395.1 100.6 395.1C119.7 395.1 135.2 393.4 135.2 391.4C135.2 389.3 119.7 387.7 100.6 387.7C81.5 387.7 66 389.4 66 391.4Z" fill="#E4EFF4"/>
<path d="M99.7 288.1L86 276.9C86 276.9 79.8 285.5 82.3 293.8C83.5 297.8 85 299.8 85.7 301.8C86.3 303.6 90.8 329 90.5 330.9C90.2 332.8 88.1 338 87.3 343.5C86.4 350.1 86.9 371.6 86.1 377.3C85.4 383 90.7 383.9 90.9 382C93.1 365.5 99.3 339.7 100.1 331.5C101 323.1 100.4 308 99.7 288.1Z" fill="#FFCCB0"/>
<path d="M100 304.4L94.3 318C96.8 322.2 98.4 327.1 98.6 332.1C98.7 334.7 98.5 337.3 98.6 339.9C98.6 340.1 98.6 340.3 98.7 340.5C99.4 336.6 100 333.4 100.2 331.3C100.8 325.5 100.6 316.2 100.3 304.3C100.2 304.4 100.1 304.4 100 304.4Z" fill="#F4B798"/>
<path d="M91.8 376.6C91.8 376.6 90.6 382.6 91 383.3C91.4 384.1 92.6 386.3 93.9 387C95.2 387.8 98.1 388.8 98.4 389.1C98.6 389.5 98.7 390 98.2 390.3C97.1 391.2 95.3 391.6 94.1 391.4C90.1 390.8 89.7 389.1 87.4 388.8C87 388.8 86.3 389.4 85.2 388.8C84.1 388.3 83.5 387.2 83.6 386.3C83.7 384.7 84.6 383.3 85.3 382.1C85.9 380.9 86.3 375.3 86.3 375.3" fill="#FFCCB0"/>
<path d="M98.5 390.7C98.8 390.2 98.8 389.5 98.6 389.3C98.2 389.1 96.9 388.2 96.1 387.9C95.3 387.6 94.1 387.3 94.5 387.5C94.9 387.7 94.2 388.6 93.4 388.6C90.9 388.5 89.1 386.9 87.7 386.5C85.7 386 84.8 383.6 84.7 383.2C84.3 383.4 83.5 385.4 83.3 386C83.1 386.6 82.9 387.6 83 388.1C83.1 388.5 83.4 389.3 83.3 390.1C83.3 390.1 83.7 390.4 84.8 390.6C85.5 390.7 86.4 390.6 86.4 390.6L86.6 389.3C86.6 389.3 87.2 389.3 87.9 389.4C88.6 389.5 89.8 390.2 89.8 390.3C90.1 390.6 90.3 391.2 90.7 391.4C91.7 391.9 92.7 392.1 94 392.2C96.5 392.3 98 391.5 98.5 390.7Z" fill="#222B70"/>
<path d="M118.6 389.6C118.3 389.3 115.2 388.8 113.7 388.2C112.3 387.6 110.6 385.7 110.3 384.9C110 384.1 110 380 110.1 378.3C110.4 366.6 112.6 337.9 112.9 331.1C113.4 319.2 111.9 306.9 107.3 287.7L90.2 274.6C90.2 274.6 85.4 283.5 87 292C87.9 296.9 92 297.7 92.7 299.6C93.4 301.5 103.7 332.4 103.7 332.4C103.7 332.4 101.7 339.1 101.6 346.4C101.5 352.7 104.3 371.5 104.9 378.7C105 380.1 105.2 383.5 104.8 384.5C104.3 385.8 103 387.4 103.1 389C103.1 390 103.8 390.9 105 391.2C106.2 391.6 106.9 390.9 107.3 390.9C109.7 390.8 110.4 392.5 114.5 392.5C115.8 392.5 117.6 391.8 118.6 390.8C119 390.5 118.9 389.9 118.6 389.6Z" fill="#FFCCB0"/>
<path d="M119 391.1C119.2 390.6 119.2 389.8 118.9 389.7C118.5 389.5 117 388.9 116.2 388.6C115.4 388.4 114.1 388.3 114.5 388.4C115 388.6 114.3 389.5 113.5 389.6C110.9 389.9 108.8 388.5 107.3 388.4C105.1 388.2 104.3 386 104.2 385.6C103.8 385.9 102.8 388 102.7 388.6C102.6 389.2 102.4 390.2 102.7 390.7C102.9 391.1 103.2 391.8 103.2 392.7C103.2 392.7 103.7 392.9 104.8 393C105.5 393 106.4 392.8 106.4 392.8V391.5C106.4 391.5 107 391.4 107.7 391.4C108.4 391.4 109.4 391.8 109.8 392.1C110.2 392.4 110.5 392.8 110.9 392.9C112.1 393.2 113 393.3 114.3 393.2C117.1 393 118.6 392 119 391.1Z" fill="#222B70"/>
<path d="M86.6 276C82.2 280.5 79.4 287 81 294.1C81.4 296 83.8 301.1 84.3 303C85.4 307.3 87.3 313.6 87.6 318.6C94.4 322.7 107.2 321.1 112.8 317.2C112.9 311.1 112.4 306.4 111.2 298.1C109.4 285.6 107.3 282.8 105.5 277.8C105.3 276.9 104.6 275.1 104.4 274.1" fill="#1F8BE0"/>
<path d="M96.3 234.1C97.4 234.3 97.5 236.8 98.6 237C99.4 237.1 100.8 236.5 101.6 236.8C105.7 238.2 105.5 242.6 106.9 247.7C109.2 251.4 110.3 254.9 109.4 257.4C108.3 260.4 106.8 261.5 105.3 264.2C104.2 266.2 104.4 269.8 104.7 273.6C104.8 274.3 105.6 276 105.5 276.7C105.4 278 103.6 278.7 101.6 279.1C96.9 280.1 89.6 279.5 87.2 279.4C85.2 279.3 83.2 279.2 83.2 278C83.2 277.2 83.9 276.7 84 275C84.1 271.4 83 262.6 83.1 259.5C83.1 251.7 83.2 245.8 85 238.3" fill="#023D5F"/>
<path d="M110.4 250.3C108.9 248.5 107 246.9 105.1 245.5L101.4 248.1C104 251.4 105.1 255.6 106.7 259.5C107.6 259.4 109 258.8 109 258.8C109.3 258.1 109.2 258.4 109.5 257.4C110.1 255.7 110.7 253 110.4 250.3Z" fill="#0D2D47"/>
<path d="M108 221.4C108.1 219.5 108.1 217.6 107.7 216C107 213 105.9 208.7 100.5 207.9C95.2 207 89.9 209.1 88.9 213C87.9 216.9 89.3 222.3 89.6 225.2C89.9 228.2 88.4 232 88.4 232L100 234.7C100 234.7 101.1 230.6 101.7 230C102.3 229.4 102.9 231.2 105.3 230.5C106.3 230.2 107.1 228.2 107.5 225.8C107.5 225.7 107.5 225.6 107.5 225.6C108 225.5 108.6 225.3 108.8 225.3C109.5 224.9 109.4 224.6 109.1 224.2C108.6 223.3 108.2 222.2 108 221.4Z" fill="#FFCCB0"/>
<path d="M138 225.1C136.3 231.1 132.9 235.4 130.3 234.7C127.7 234 127 228.5 128.7 222.5C130.4 216.5 133.8 212.2 136.4 212.9C139 213.6 139.7 219.1 138 225.1Z" fill="#E8505C"/>
<path d="M123.1 256.6C122.5 256.4 122.1 255.8 122.3 255.2L134.3 212.3L136.5 212.9L124.5 255.8C124.3 256.4 123.7 256.7 123.1 256.6Z" fill="#E8505C"/>
<path d="M135.8 224.5C134.1 230.5 130.7 234.8 128.1 234.1C125.5 233.4 124.8 227.9 126.5 221.9C128.2 215.9 131.6 211.6 134.2 212.3C136.8 213 137.5 218.5 135.8 224.5Z" fill="#FF8594"/>
<path d="M134.8 224.3C133.3 229.6 130.5 233.4 128.5 232.8C126.5 232.2 126.1 227.5 127.6 222.2C129.1 216.9 131.9 213.1 133.9 213.7C135.9 214.3 136.3 219 134.8 224.3Z" fill="#EBF8FF"/>
<path d="M129 232.9C128.8 232.9 128.7 232.9 128.6 232.9C126.6 232.3 126.2 227.6 127.6 222.3C129.1 217 131.9 213.2 133.9 213.7C134.1 213.7 134.2 213.8 134.3 213.9C132.4 213.9 129.8 217.6 128.4 222.5C127.1 227.4 127.3 231.8 129 232.9Z" fill="#E8505C"/>
<path d="M127.9 246.8C128.8 246.7 130.9 244.6 131.1 243.3C131.2 242.9 131.1 242.4 130.9 242C131.1 241.4 131 239.5 130 240.3C130.8 239 130.6 237.6 130.3 236.1C130.2 235.6 129.6 235.7 129.5 236.8C129.3 238.4 128.4 239.6 127.1 240.6C126.9 240.4 127.2 240.2 127.2 239.5C127.2 238.8 126.8 238.5 126.5 238.5C126.3 238.5 126.1 239.4 126 239.6C125.6 240.4 125.3 241.1 124.9 241.9C124.5 242.7 124.3 243.3 124.4 244.2C124.4 244.4 124.7 245.8 125.2 245.4" fill="#FFCCB0"/>
<path d="M115.5 264.6C116.5 262.2 119.8 262.9 119.8 262.9C118.6 262.1 110.3 243.7 110.3 243.7L103.6 250.3C106.1 253.7 113 265 113.9 266.3C114.2 266.7 114.7 267.2 115.2 267.7C115 266.8 115 265.8 115.5 264.6Z" fill="#FFCCB0"/>
<path d="M124.8 245C123.6 250 114.6 262.1 113.7 264.2C113.7 264.2 113.6 267.5 116.1 268.1C116.4 268.2 116.6 268.2 116.8 268.2C118.1 268.3 119.3 267.7 120 266.6C123.9 259.8 128.4 246.4 128.4 246.4C128.4 246.4 127.1 244.1 124.8 245Z" fill="#FFCCB0"/>
<path d="M105.1 235.9C100.7 235.1 96.8 235.8 93.1 233.2C90.4 236.2 99.9 249.1 101.8 249.1C103.6 249.2 107.1 256.5 108 257.5C113.6 256.3 115.1 252.9 115.1 252.9C112.8 246.6 109.3 236.7 105.1 235.9Z" fill="#023D5F"/>
<path d="M101.9 236.9C101.4 235.9 100.5 235.2 100.1 234.1C99.7 233.1 99.7 231.8 100.1 230.8C100.4 230.2 100.8 229.7 101.3 229.2C103.2 227 103.7 225.4 102.5 222.9C102.1 222.1 101.7 221.2 101.6 220.3C101.5 219.5 101.5 218.6 102.4 218.3C103 218.1 103.4 218.2 103.7 218.7C103.9 219 104.1 221.7 104.7 220C105.3 218.5 106 218.2 105.3 215C105.2 214.6 104.8 213.1 105 212.8C106.7 213.6 107.5 215.4 107.9 216.7C108.9 216 109 214.3 108.8 213.7C108.6 212.4 108.3 211.5 107.6 210.6C104.9 206.8 102.7 206.4 100.8 206C99 205.6 97.1 205.2 95.2 205.6C93.4 206 91.2 206.9 90.9 208.4C88.2 208.2 87.2 210.7 86.7 211.6C86 212.9 85.6 214.3 85.4 215.8C85.1 217.9 85.4 220.1 85.2 222.2C85.1 223.9 84.7 225.8 83.6 227.2C82.6 228.5 80.8 229 79.7 230.2C78.2 231.8 77.7 234.2 78.1 236.3C78.6 238.4 80.1 240.6 79.2 242.8C78.9 243.5 78.4 244.1 78.1 244.9C77.4 246.6 77.9 248.6 79.1 249.9C80.3 251.2 82.4 252.7 84.2 252.9C86 253.1 87.3 253.1 89.1 252.7C92.2 252 94.8 251.7 97.6 248.3C99.2 246.4 97.8 245.7 99.3 243.7C100.1 242.6 101.5 241.8 102 240.5C102.4 239.4 102.3 238.1 101.9 237C101.9 237 101.9 237 101.9 236.9Z" fill="#2C1E56"/>
<path d="M289.1 105.1H243.8C243.8 105.1 243.8 104.5 244.2 103.5C245.4 100.8 249.6 95.3 264.7 92.8L272.2 91.3C272.1 91.3 289.5 91.3 289.1 105.1Z" fill="#1F8BE0"/>
<path d="M274.1 105.1H243.8C243.8 105.1 243.8 104.5 244.2 103.5C245.3 103.1 246.7 103.2 247.8 103.5C248.9 103.8 249.6 104 249.6 104C249.6 104 265.5 104 269.3 104C273.2 104 274.1 105.1 274.1 105.1Z" fill="#17A59E"/>
<path d="M266.6 96.5C266 96.5 265.4 96.3 264.9 96C264.4 95.7 264.1 95.2 264 94.6C263.9 94.2 263.8 93.7 263.6 93.3C263.4 92.8 263.2 92.4 263 92L270.6 83.7C270.6 83.7 271.4 89.9 272.8 92C272.8 92 273.2 96.1 266.6 96.5Z" fill="#FFCCB0"/>
<path d="M268.5 88.5C268.5 88.5 267.6 93.2 264.9 96C264.4 95.7 264.1 95.2 264 94.6C263.9 94.2 263.8 93.7 263.6 93.3C264.8 92.3 267.3 90.3 268.5 88.5Z" fill="#F2A181"/>
<path d="M247.4 73C247.4 73 247.1 81.3 250.8 81.2C254.5 81.1 250.8 72 250.8 72L247.4 73Z" fill="#2C1E56"/>
<path d="M269.7 82.1C269.8 83.3 269.9 84.4 269.8 85.2C269.8 85.3 269.8 85.4 269.7 85.5C269.7 85.6 269.7 85.7 269.6 85.8C268.7 89.4 264.2 94.4 261 94.8C260.6 94.8 260.2 94.8 259.8 94.8C255.4 94.6 252.8 91 251.3 87.1C251.2 87 251.2 86.8 251.1 86.7C249.8 83.1 249.4 79.5 249.2 78.2C249.2 77.9 249 74.6 249.6 73.7C250.3 72.6 259 71.6 259.2 71.6C259.4 71.6 267.8 72.2 267.8 72.2C267.8 72.2 269.2 77.9 269.7 82.1Z" fill="#FFCCB0"/>
<path d="M245.7 70.4C245.7 70.4 246 76.8 256.5 74.2C259.4 73.5 261.9 72.8 263.3 73.6C265.4 80.3 265.5 83.6 266.3 83.3C267.3 83 264.7 77.4 268 78C270.5 78.5 267.9 84.6 267.9 84.6C267.9 84.6 271 85 271 83.6C271.1 82.8 271.1 70.7 269.1 67.8C267 64.9 264.5 65.1 264.5 65.1C264.5 65.1 261.9 62.9 255.7 64.7C249.5 66.5 246.3 64.2 246.3 64.4C246.3 64.6 245.3 66.4 245.7 70.4Z" fill="#2C1E56"/>
<path d="M289.1 105.1C289.1 105.1 285.6 128.8 270.2 140.8C264.5 145.2 258.1 151.9 258.1 151.9L257.9 151.7C257.1 152.4 257.1 152.5 256.9 152.8C256.5 153.5 256.1 156.3 255.3 156.6C255.2 156.6 255.1 156.7 254.9 156.7C254.6 156.9 254.2 157.1 253.8 157.2C252.9 157.3 251.7 157 251.3 156.9C251 157.1 250.8 157.5 250.2 157.8C249.1 158.3 248.1 159.1 247.2 159.4C246.3 159.7 246.2 159.4 246.4 158.9C246.6 158.3 248.2 157.4 248.9 156.9C249.5 156.4 250.5 155.1 250.9 154.3C251.3 153.5 251.3 153 250.9 153C250.5 153 249.4 153.7 248.5 153.9C247.6 154.1 247.2 153.9 247.6 153.4C248 152.9 249.2 151.4 250.7 151C252.1 150.6 252.5 150.6 253.6 149.8C254.1 149.4 254.7 148.6 255.2 147.8L254.8 147.5C254.8 147.5 264.3 134.2 271.4 124C271.6 123.8 271.7 123.6 271.9 123.4C275.9 115.3 276.3 108.8 276.3 106.3C275.8 105.4 275.1 105.1 275.1 105.1H289.1Z" fill="#5FB0E7"/>
<path d="M255 146.4C255 146.4 253.5 149 252.5 149.8C251.5 150.6 251.1 150.6 249.6 151C248.2 151.4 246.9 152.8 246.5 153.4C246.1 153.9 246.5 154.1 247.4 154C248.3 153.8 249.4 153.1 249.8 153.1C250.2 153.1 250.2 153.5 249.8 154.4C249.4 155.2 248.4 156.6 247.8 157C247.2 157.5 245.5 158.4 245.4 158.9C245.2 159.5 245.4 159.7 246.2 159.5C247.1 159.2 248.1 158.5 249.2 157.9C249.8 157.6 250 157.3 250.3 157C250.6 157.1 251.9 157.4 252.8 157.3C253.2 157.2 253.6 157 254 156.8C254.1 156.8 254.3 156.8 254.4 156.7C255.2 156.4 255.6 153.7 256 152.9C256.4 152.2 259.4 149.4 259.4 149.4L255 146.4Z" fill="#FFCCB0"/>
<path d="M289.1 105.1L283.4 101.2L280.5 102.6C278.7 101.8 275.5 100.6 275.5 100.6L274.1 105.1C274.1 105.1 274.8 105.4 275.3 106.3C275.3 108.8 274.9 115.3 270.9 123.4C270.7 123.6 270.6 123.8 270.4 124C263.3 134.3 253.8 147.5 253.8 147.5L257.9 151.1C257.9 151.1 264 145.6 269.3 140.8C271.1 139.2 276.6 133.9 279.9 127.8C285.4 117.5 289.1 105.1 289.1 105.1Z" fill="#1F8BE0"/>
<path d="M251.4 107.8C251.3 107.8 251.3 107.8 251.2 107.8C251.4 108 251.5 108.1 251.5 108.2C251.7 108.4 251.6 108.5 251.6 108.5C251.4 108.7 251.2 108.7 250.9 108.7C250.8 108.7 250.6 108.6 250.4 108.4C250.2 108.6 250 108.6 249.7 108.5C249.4 108.5 249.1 108.2 248.7 107.8C248.8 107.9 248.7 108 248.7 108C248.5 108.2 248.3 108.2 248 108.2C247.7 108.2 247.4 107.9 246.9 107.4C246.8 107.3 246.5 107 246.3 106.7C246.1 106.6 245.9 106.4 245.7 106.3C245.3 106 245 106 244.8 106C242.7 106 241.7 105 239.1 105H251C251 105 251 105 250.9 105C250.8 105 250.5 105.1 250.2 105.1C250.2 105.1 250.2 105.1 250.3 105.2C250.5 105.4 250.6 105.6 250.7 105.7C251.2 106.3 251.8 107 251.9 107.1C252.1 107.3 252 107.4 252 107.4C251.8 107.8 251.6 107.8 251.4 107.8Z" fill="#5FB0E7"/>
<path d="M250.9 107.8C250.8 107.8 250.8 107.8 250.7 107.8C250.9 108 251 108.1 251 108.2C251.2 108.4 251.1 108.5 251.1 108.5C250.9 108.7 250.7 108.7 250.4 108.7C250.3 108.7 250.1 108.6 249.9 108.4C249.7 108.6 249.5 108.6 249.2 108.5C248.9 108.5 248.6 108.2 248.2 107.8C248.3 107.9 248.2 108 248.2 108C248 108.2 247.8 108.2 247.5 108.2C247.2 108.2 246.9 107.9 246.4 107.4C246.3 107.3 246 107 245.8 106.7C245.6 106.6 245.4 106.4 245.2 106.3C244.8 106 244.5 106 244.3 106C242.2 106 241.2 105 238.6 105C238.6 105 244.8 102 248.5 104.1C248.9 104.2 249.6 104.3 250.1 104.3C251.2 104.3 250.9 104.9 250.5 105C250.4 105 250.1 105.1 249.8 105.1C249.8 105.1 249.8 105.1 249.9 105.2C250.1 105.4 250.2 105.6 250.3 105.7C250.8 106.3 251.4 107 251.5 107.1C251.7 107.3 251.6 107.4 251.6 107.4C251.3 107.8 251.1 107.8 250.9 107.8Z" fill="#FFCCB0"/>
<path opacity="0.47" d="M250.5 105.2C250.4 105.2 250.1 105.3 249.8 105.3C249.8 105.3 248.9 104.5 248.5 104.3C248.9 104.4 249.6 104.5 250.1 104.5C251.1 104.4 250.8 105 250.5 105.2Z" fill="url(#paint0_linear)"/>
</g>
<defs>
<linearGradient id="paint0_linear" x1="248.491" y1="104.774" x2="250.806" y2="104.774" gradientUnits="userSpaceOnUse">
<stop stop-color="#F7941E"/>
<stop offset="1" stop-color="#F7941E" stop-opacity="0"/>
</linearGradient>
<clipPath id="clip0">
<rect width="539.1" height="399.9" fill="white"/>
</clipPath>
</defs>
</svg>
