<svg width="500" height="373" viewBox="0 0 500 373" fill="none" xmlns="http://www.w3.org/2000/svg">
<g clip-path="url(#clip0)">
<path d="M500 327.4H0V327.7H500V327.4Z" fill="white"/>
<path d="M105.9 339.3H51.6V339.6H105.9V339.3Z" fill="white"/>
<path d="M251 333.9H230.5V334.2H251V333.9Z" fill="#E6E6E6"/>
<path d="M181.2 333.9H151.3V334.2H181.2V333.9Z" fill="#E6E6E6"/>
<path d="M428.9 336.8H365.6V337.1H428.9V336.8Z" fill="white"/>
<path d="M239.2 336.8H224.9V337.1H239.2V336.8Z" fill="#E6E6E6"/>
<path d="M129 339.3H115.7V339.6H129V339.3Z" fill="#E6E6E6"/>
<path d="M445.6 336.8H437.1V337.1H445.6V336.8Z" fill="white"/>
<path d="M237 282.8H43.9C40.8 282.8 38.2 280.2 38.2 277.1V5.7C38.2 2.6 40.8 0 43.9 0H237C240.1 0 242.7 2.6 242.7 5.7V277.1C242.7 280.3 240.2 282.8 237 282.8ZM43.9 0.3C40.9 0.3 38.4 2.7 38.4 5.8V277.2C38.4 280.2 40.8 282.7 43.9 282.7H237C240 282.7 242.5 280.3 242.5 277.2V5.7C242.5 2.7 240.1 0.2 237 0.2H43.9V0.3Z" fill="white"/>
<path d="M453.3 282.8H260.2C257.1 282.8 254.5 280.2 254.5 277.1V5.7C254.5 2.6 257.1 0 260.2 0H453.3C456.4 0 459 2.6 459 5.7V277.1C459 280.3 456.5 282.8 453.3 282.8ZM260.2 0.3C257.2 0.3 254.7 2.7 254.7 5.8V277.2C254.7 280.2 257.1 282.7 260.2 282.7H453.3C456.3 282.7 458.8 280.3 458.8 277.2V5.7C458.8 2.7 456.4 0.2 453.3 0.2H260.2V0.3Z" fill="white"/>
<path d="M412.2 30.6H189.3V160.2H412.2V30.6Z" fill="#E6E6E6"/>
<path d="M415.2 30.6H192.3V160.2H415.2V30.6Z" fill="#F5F5F5"/>
<path d="M409.72 154.062V36.6619L197.62 36.6619L197.62 154.062L409.72 154.062Z" fill="white"/>
<path d="M409.715 154.067V36.6674H407.415V154.067H409.715Z" fill="#E6E6E6"/>
<path d="M412.9 117.6H194.5V125.8H412.9V117.6Z" fill="#F5F5F5"/>
<path d="M253 241.2H216.4V322.3H253V241.2Z" fill="#E6E6E6"/>
<path d="M384.5 322.3H223.4V327.4H384.5V322.3Z" fill="#E6E6E6"/>
<path d="M252.971 322.263H391.571V241.163H252.971V322.263Z" fill="#F5F5F5"/>
<path d="M267.371 277.806H377.171V251.206H267.371V277.806Z" fill="#E6E6E6"/>
<path d="M267.371 312.319H377.171V285.719H267.371V312.319Z" fill="#E6E6E6"/>
<path d="M338.7 266.3H305.8C304.9 266.3 304.2 265.6 304.2 264.7V264.3C304.2 263.4 304.9 262.7 305.8 262.7H338.7C339.6 262.7 340.3 263.4 340.3 264.3V264.7C340.4 265.6 339.6 266.3 338.7 266.3Z" fill="#F5F5F5"/>
<path d="M338.7 300.8H305.8C304.9 300.8 304.2 300.1 304.2 299.2V298.8C304.2 297.9 304.9 297.2 305.8 297.2H338.7C339.6 297.2 340.3 297.9 340.3 298.8V299.2C340.4 300.1 339.6 300.8 338.7 300.8Z" fill="#F5F5F5"/>
<path d="M143.4 327.4H65.4L54.7 68.8H132.6L143.4 327.4Z" fill="#E6E6E6"/>
<path d="M154.7 327.4H67.4L56.7 68.8H143.9L154.7 327.4Z" fill="#F5F5F5"/>
<path d="M76 318.4L66 77.8H135.3L145.3 318.4H76Z" fill="white"/>
<path d="M284.9 228.6C285.9 201.3 286.9 163.4 284.8 149.7L281.3 147C281.3 147 282.1 149.6 282.5 191.4C282.9 233.3 283.4 222.3 283 228.5H284.9V228.6Z" fill="#E0E0E0"/>
<path d="M291.4 138.1C297.8 129.5 311.2 123.3 325.1 123.3C330.6 123.3 308.8 133.4 300.1 144.4C293.3 153 285.7 167.5 283.3 175.5C284.4 158.7 285 146.8 291.4 138.1Z" fill="#E0E0E0"/>
<path d="M278.6 160.7C272.7 151.7 259.7 144.8 245.8 144C240.3 143.7 261.4 155 269.6 166.6C275.9 175.6 282.6 190.5 284.6 198.7C284.3 181.6 284.4 169.7 278.6 160.7Z" fill="#E0E0E0"/>
<path d="M281.2 123.7C275.9 113.2 263.4 103.1 249.8 98.9C244.5 97.3 266.5 115.8 272.9 129.9C277.8 140.9 283.7 154.7 285.3 163.5C285.9 146.3 286.5 134.2 281.2 123.7Z" fill="#E0E0E0"/>
<path d="M283.6 241.2C290.3 241.2 295.9 235.9 296.3 229.2L297.4 209.7H269.8L270.9 229.2C271.4 235.9 276.9 241.2 283.6 241.2Z" fill="#F0F0F0"/>
<path d="M268.1 214.1H299.2L300.1 206H267.2L268.1 214.1Z" fill="#EBEBEB"/>
<path d="M400.591 80.2282H421.191V24.2282H400.591V80.2282Z" fill="#E6E6E6"/>
<path d="M400.5 24.2H390.3V75.7H400.5V24.2Z" fill="#F5F5F5"/>
<path d="M369.745 80.2282H390.345V24.2282H369.745V80.2282Z" fill="#E6E6E6"/>
<path d="M369.7 24.2H359.5V75.7H369.7V24.2Z" fill="#F5F5F5"/>
<path d="M338.899 80.2282H359.499V24.2282H338.899V80.2282Z" fill="#E6E6E6"/>
<path d="M338.8 24.2H328.6V75.7H338.8V24.2Z" fill="#F5F5F5"/>
<path d="M307.953 80.2282H328.553V24.2282H307.953V80.2282Z" fill="#E6E6E6"/>
<path d="M307.9 24.2H297.7V75.7H307.9V24.2Z" fill="#F5F5F5"/>
<path d="M277.108 80.2282H297.708V24.2282H277.108V80.2282Z" fill="#E6E6E6"/>
<path d="M277.1 24.2H266.9V75.7H277.1V24.2Z" fill="#F5F5F5"/>
<path d="M246.262 80.2282H266.862V24.2282H246.262V80.2282Z" fill="#E6E6E6"/>
<path d="M246.2 24.2H236V75.7H246.2V24.2Z" fill="#F5F5F5"/>
<path d="M215.416 80.2282H236.016V24.2282H215.416V80.2282Z" fill="#E6E6E6"/>
<path d="M215.3 24.2H205.1V75.7H215.3V24.2Z" fill="#F5F5F5"/>
<path d="M184.471 80.2282H205.071V24.2282H184.471V80.2282Z" fill="#E6E6E6"/>
<path d="M250 372.6C357.088 372.6 443.9 367.541 443.9 361.3C443.9 355.059 357.088 350 250 350C142.912 350 56.1 355.059 56.1 361.3C56.1 367.541 142.912 372.6 250 372.6Z" fill="#F5F5F5"/>
<path d="M352.4 164.6L356.7 171.1L363 169.8L358.2 161.7L352.4 164.6Z" fill="#FFCCB0"/>
<path d="M364.5 108.9C365.4 110 366.2 111 366.9 112C367.7 113 368.4 114.1 369.1 115.1C370.6 117.2 371.9 119.4 373.2 121.6C374.5 123.8 375.8 126.1 376.9 128.5C377.5 129.7 378 130.9 378.5 132.1C379 133.4 379.5 134.6 379.9 135.9L380.2 136.9L380.4 137.4C380.5 137.7 380.6 138 380.6 138.3C380.8 139.5 380.9 140.5 380.8 141.5C380.7 143.4 380.2 144.9 379.7 146.3C378.7 149.1 377.4 151.5 376 153.7C373.1 158.2 369.9 162 366.3 165.7L362 162.3C364.4 158.2 366.7 153.9 368.6 149.7C369.5 147.6 370.3 145.5 370.8 143.6C371 142.7 371.1 141.8 371.1 141.2C371.1 140.9 371 140.7 371 140.7L370.8 140.3L370.5 139.5C368.8 135.4 366.4 131.4 363.9 127.4C362.6 125.4 361.3 123.5 360 121.5C358.7 119.6 357.2 117.6 355.9 115.8L364.5 108.9Z" fill="#FFCCB0"/>
<path d="M362 103.9C368.9 105.5 376.8 124.3 376.8 124.3L363 133.8C363 133.8 357.8 126.5 353.9 118.3C349.8 109.7 355 102.3 362 103.9Z" fill="#407BFF"/>
<path opacity="0.8" d="M362 103.9C368.9 105.5 376.8 124.3 376.8 124.3L363 133.8C363 133.8 357.8 126.5 353.9 118.3C349.8 109.7 355 102.3 362 103.9Z" fill="white"/>
<path d="M357.1 115.9L363.6 133.3L363 133.8C363 133.8 360.2 129.8 357.1 124.5V115.9Z" fill="#407BFF"/>
<path opacity="0.6" d="M357.1 115.9L363.6 133.3L363 133.8C363 133.8 360.2 129.8 357.1 124.5V115.9Z" fill="white"/>
<path d="M339.6 354.7H332.3L331.6 337.7H338.9L339.6 354.7Z" fill="#FFCCB0"/>
<path d="M383.7 354.7H376.4L372.7 337.7H380.1L383.7 354.7Z" fill="#FFCCB0"/>
<path d="M331.6 337.7L331.9 346.5H339.3L338.9 337.7H331.6Z" fill="#FFCCB0"/>
<path d="M380.1 337.7H372.7L374.6 346.5H382L380.1 337.7Z" fill="#FFCCB0"/>
<path d="M334.4 167.8C334.4 167.8 342.7 223.9 347.3 245C352.3 268 371.2 344.8 371.2 344.8H384.7C384.7 344.8 372.2 269.9 369.4 247.1C366.3 222.3 359.8 167.8 359.8 167.8H334.4Z" fill="#1F8BE0"/>
<path opacity="0.5" d="M334.4 167.8C334.4 167.8 342.7 223.9 347.3 245C352.3 268 371.2 344.8 371.2 344.8H384.7C384.7 344.8 372.2 269.9 369.4 247.1C366.3 222.3 359.8 167.8 359.8 167.8H334.4Z" fill="black"/>
<path opacity="0.4" d="M339.6 187.8C349.2 189.7 348.2 225.6 347.1 244.1C344.3 231 340.3 205.9 337.5 188C338.1 187.8 338.8 187.7 339.6 187.8Z" fill="black"/>
<path d="M320.4 167.8C320.4 167.8 319.4 222.7 320.2 245.1C321 268.4 329.2 344.7 329.2 344.7H341.6C341.6 344.7 342.1 269.8 342.6 246.9C343.2 222 346.2 167.8 346.2 167.8H320.4Z" fill="#1F8BE0"/>
<path opacity="0.5" d="M320.4 167.8C320.4 167.8 319.4 222.7 320.2 245.1C321 268.4 329.2 344.7 329.2 344.7H341.6C341.6 344.7 342.1 269.8 342.6 246.9C343.2 222 346.2 167.8 346.2 167.8H320.4Z" fill="black"/>
<path d="M363.6 160.8L358.2 161.7L363 169.8C363 169.8 366.7 168 367.4 164.5L363.6 160.8Z" fill="#FFCCB0"/>
<path d="M328.1 76.6C328.1 77.2 327.8 77.7 327.4 77.7C327 77.7 326.7 77.2 326.7 76.6C326.7 76 327 75.5 327.4 75.5C327.8 75.6 328.1 76.1 328.1 76.6Z" fill="#263238"/>
<path d="M327.8 77.7C327.8 77.7 326.5 81.1 325 82.8C326 83.8 327.8 83.3 327.8 83.3V77.7Z" fill="#FFCCB0"/>
<path d="M330.2 73.4C330.1 73.4 330.1 73.4 330 73.3C328.7 72.4 327.5 72.8 327.5 72.8C327.3 72.9 327.1 72.8 327.1 72.6C327 72.4 327.1 72.2 327.3 72.1C327.4 72.1 328.9 71.5 330.4 72.6C330.6 72.7 330.6 72.9 330.5 73.1C330.4 73.3 330.3 73.4 330.2 73.4Z" fill="#263238"/>
<path d="M347.2 83.5C346.1 88.9 345.1 98.7 348.9 102.3C348.9 102.3 347.4 107.8 337.4 107.8C326.4 107.8 332.2 102.3 332.2 102.3C338.2 100.9 338 96.4 337 92.2L347.2 83.5Z" fill="#FFCCB0"/>
<path d="M350.3 104.2C351.1 102.5 352 100.5 350.2 99.9C348.2 99.2 337.4 98.5 333.7 99.8C330 101.1 331 104.6 331 104.6L350.3 104.2Z" fill="#1F8BE0"/>
<path d="M373.5 355.1C372.7 355.1 372 355 371.7 354.6C371.6 354.4 371.5 354.2 371.7 353.8C371.8 353.6 372 353.5 372.2 353.4C373.3 353.2 375.3 354.5 375.4 354.6C375.5 354.6 375.5 354.7 375.5 354.8C375.5 354.9 375.4 354.9 375.4 354.9C375 355 374.2 355.1 373.5 355.1ZM372.5 353.7C372.4 353.7 372.4 353.7 372.3 353.7C372.2 353.7 372 353.8 372 353.9C371.8 354.2 371.9 354.3 372 354.3C372.3 354.7 373.8 354.7 374.9 354.5C374.2 354.2 373.2 353.7 372.5 353.7Z" fill="#1F8BE0"/>
<path d="M375.3 354.9C374.5 354.5 373 352.9 373.1 352C373.1 351.9 373.2 351.6 373.7 351.5C374 351.5 374.2 351.5 374.4 351.7C375.3 352.4 375.4 354.5 375.4 354.6C375.5 354.7 375.5 354.8 375.3 354.9C375.4 354.9 375.4 354.9 375.3 354.9ZM373.8 351.9C373.5 351.9 373.5 352 373.5 352.1C373.4 352.6 374.3 353.8 375.1 354.4C375 353.8 374.8 352.5 374.2 352.1C374.1 351.9 374 351.9 373.8 351.9Z" fill="#1F8BE0"/>
<path d="M329.3 355.1C328.4 355.1 327.4 355 327.1 354.5C327 354.4 326.9 354.1 327.1 353.7C327.2 353.5 327.4 353.4 327.7 353.3C328.9 353 331.5 354.4 331.6 354.5C331.7 354.5 331.7 354.6 331.7 354.7C331.7 354.8 331.6 354.8 331.6 354.8C331.1 355 330.2 355.1 329.3 355.1ZM328.2 353.6C328.1 353.6 328 353.6 327.9 353.6C327.7 353.6 327.6 353.7 327.6 353.8C327.5 354 327.5 354.1 327.6 354.2C327.9 354.7 329.8 354.7 331.2 354.5C330.3 354.3 329 353.6 328.2 353.6Z" fill="#1F8BE0"/>
<path d="M331.6 354.9C331.5 354.9 331.5 354.9 331.6 354.9C330.6 354.5 328.9 352.9 329 352.1C329 351.9 329.2 351.7 329.6 351.6C330 351.6 330.3 351.7 330.6 351.9C331.5 352.7 331.7 354.6 331.7 354.7C331.7 354.8 331.7 354.8 331.6 354.9ZM329.8 351.9H329.7C329.4 351.9 329.4 352.1 329.4 352.1C329.3 352.6 330.5 353.8 331.4 354.4C331.3 353.8 331 352.6 330.4 352.1C330.2 352 330 351.9 329.8 351.9Z" fill="#1F8BE0"/>
<path d="M375.9 353.8H384.2C384.5 353.8 384.8 354 384.8 354.3L386.3 360.8C386.5 361.5 385.9 362.1 385.2 362.1C382.3 362.1 380.9 361.9 377.3 361.9C375.1 361.9 370.5 362.1 367.4 362.1C364.4 362.1 363.9 359.1 365.2 358.8C370.9 357.6 373 355.9 374.8 354.2C375 354 375.4 353.8 375.9 353.8Z" fill="#263238"/>
<path d="M332.3 353.8H340.3C340.6 353.8 340.9 354 340.9 354.3L342.4 360.8C342.6 361.5 342 362.1 341.3 362.1C338.4 362.1 334.2 361.9 330.6 361.9C326.3 361.9 322.7 362.1 317.7 362.1C314.7 362.1 313.8 359.1 315.1 358.8C320.8 357.5 325.5 357.4 330.5 354.3C331.1 354.1 331.7 353.8 332.3 353.8Z" fill="#263238"/>
<path d="M321.9 119C319 123.3 316 127.3 312.7 131.3C309.5 135.3 306.1 139.1 302.3 142.8L300.9 144.2L300.5 144.5L300.2 144.7L299.8 145C299.3 145.4 298.8 145.7 298.3 146C296.3 147.1 294.5 147.4 292.8 147.5C289.6 147.8 286.8 147.3 284.1 146.8C278.8 145.7 274 143.9 269.2 141.6L271 136.4C275.7 137.3 280.6 138.1 285.2 138.3C287.5 138.4 289.7 138.4 291.5 138C292.3 137.8 293 137.5 293.2 137.4V137.3L293.3 137.2L293.6 136.9L294.8 135.6C297.9 132 301 128.2 303.9 124.4C306.8 120.5 309.8 116.5 312.6 112.7L321.9 119Z" fill="#FFCCB0"/>
<path d="M325.2 120.1C325.1 120.3 324.2 129.1 317.4 136.9C317.2 133.4 317.2 130.2 317.2 127.4L325.2 120.1Z" fill="#BED3FC"/>
<path d="M347.9 75.4C347.5 82.7 347.6 87 343.9 90.7C338.4 96.3 329.4 93 327.7 85.7C326.1 79.2 327.1 68.4 334.3 65.5C341.2 62.6 348.3 68.1 347.9 75.4Z" fill="#FFCCB0"/>
<path d="M333.7 70.5C333.8 79.1 336.5 89.6 344.8 88.8C350.3 88.3 354.5 78.3 355.1 74C356 67.5 356.1 66.3 352.4 65.5C354 64.6 354.6 60.5 350.8 59.5C345.6 58.1 335.8 56.8 338.9 53.6C332.8 54.7 331.2 57.2 332.3 60.2C328.7 59.9 326.5 58 326.6 55.2C320.8 57.7 316.9 71.3 333.7 70.5Z" fill="#263238"/>
<path d="M338 77.5C337.6 79.4 336.4 81 335.2 82C333.3 83.5 331.9 82.2 331.9 80C331.9 78 333 74.9 335 74.3C337.2 73.6 338.5 75.4 338 77.5Z" fill="#FFCCB0"/>
<path d="M358 67.1C357 66.5 354.6 65.2 351.4 66.6C351.4 66.6 355.5 61 358 67.1Z" fill="#263238"/>
<path d="M369 339.8C368.9 339.8 370.4 345 370.4 345H385.5L385.2 340.4L369 339.8Z" fill="#1F8BE0"/>
<path d="M326.8 339.8C326.7 339.8 327.5 345 327.5 345H342.6L343 340.4L326.8 339.8Z" fill="#1F8BE0"/>
<path d="M331.8 335.8C331.7 335.8 331.7 335.8 331.7 335.7C329.5 314.6 324.3 263.5 323.7 245.2C323 226.5 323.6 184.5 323.8 172.1C323.8 172 323.9 172 323.9 172C324 172 324 172.1 324 172.1C323.8 184.5 323.2 226.5 323.9 245.2C324.6 263.5 329.7 314.6 331.9 335.7C331.9 335.7 331.9 335.8 331.8 335.8Z" fill="#1F8BE0"/>
<path opacity="0.3" d="M331.8 335.8C331.7 335.8 331.7 335.8 331.7 335.7C329.5 314.6 324.3 263.5 323.7 245.2C323 226.5 323.6 184.5 323.8 172.1C323.8 172 323.9 172 323.9 172C324 172 324 172.1 324 172.1C323.8 184.5 323.2 226.5 323.9 245.2C324.6 263.5 329.7 314.6 331.9 335.7C331.9 335.7 331.9 335.8 331.8 335.8Z" fill="black"/>
<path d="M328.6 110.3C329.6 117.3 315.9 135 315.9 135L302.1 125.5C302.1 125.5 305.9 115.7 312.4 109.3C319.7 102 327.6 102.7 328.6 110.3Z" fill="#407BFF"/>
<path opacity="0.8" d="M328.6 110.3C329.6 117.3 315.9 135 315.9 135L302.1 125.5C302.1 125.5 305.9 115.7 312.4 109.3C319.7 102 327.6 102.7 328.6 110.3Z" fill="white"/>
<path d="M320.9 104.3C320.9 104.3 313.1 113.1 320.5 167.8C332.3 167.8 354 167.8 359.8 167.8C360.1 161.8 356.3 132.3 362.1 103.9C362.1 103.9 355.4 102.5 348.9 102.2C343.9 102 336.6 101.8 332.2 102.2C326.4 102.8 320.9 104.3 320.9 104.3Z" fill="#407BFF"/>
<path opacity="0.8" d="M320.9 104.3C320.9 104.3 313.1 113.1 320.5 167.8C332.3 167.8 354 167.8 359.8 167.8C360.1 161.8 356.3 132.3 362.1 103.9C362.1 103.9 355.4 102.5 348.9 102.2C343.9 102 336.6 101.8 332.2 102.2C326.4 102.8 320.9 104.3 320.9 104.3Z" fill="white"/>
<path d="M205.288 64.2477C208.432 50.4059 199.76 36.6364 185.918 33.4925C172.076 30.3486 158.307 39.0209 155.163 52.8626C152.019 66.7043 160.691 80.4738 174.533 83.6178C188.375 86.7617 202.144 78.0894 205.288 64.2477Z" fill="#1F8BE0"/>
<path opacity="0.2" d="M205.288 64.2477C208.432 50.4059 199.76 36.6364 185.918 33.4925C172.076 30.3486 158.307 39.0209 155.163 52.8626C152.019 66.7043 160.691 80.4738 174.533 83.6178C188.375 86.7617 202.144 78.0894 205.288 64.2477Z" fill="white"/>
<path d="M177.6 91.8C164 90.7 152.5 81.6 148.4 68.5L149.4 68.2C153.4 80.9 164.5 89.7 177.7 90.8L177.6 91.8Z" fill="#1F8BE0"/>
<path opacity="0.2" d="M177.6 91.8C164 90.7 152.5 81.6 148.4 68.5L149.4 68.2C153.4 80.9 164.5 89.7 177.7 90.8L177.6 91.8Z" fill="white"/>
<path d="M149.2 49.3L148.2 49C151.4 38.3 159.6 30 170.2 26.7C177.1 24.6 184.2 24.6 191 27L190.7 27.9C184.1 25.6 177.2 25.5 170.5 27.6C160.3 30.8 152.3 38.9 149.2 49.3Z" fill="#1F8BE0"/>
<path opacity="0.2" d="M149.2 49.3L148.2 49C151.4 38.3 159.6 30 170.2 26.7C177.1 24.6 184.2 24.6 191 27L190.7 27.9C184.1 25.6 177.2 25.5 170.5 27.6C160.3 30.8 152.3 38.9 149.2 49.3Z" fill="white"/>
<path d="M211.1 48.8C208.8 41.3 203.8 34.9 197.1 30.9L197.6 30C204.5 34.2 209.6 40.8 212 48.5L211.1 48.8Z" fill="#1F8BE0"/>
<path opacity="0.2" d="M211.1 48.8C208.8 41.3 203.8 34.9 197.1 30.9L197.6 30C204.5 34.2 209.6 40.8 212 48.5L211.1 48.8Z" fill="white"/>
<path d="M205.323 135.124C208.467 121.282 199.795 107.513 185.953 104.369C172.112 101.225 158.342 109.897 155.198 123.739C152.054 137.581 160.726 151.35 174.568 154.494C188.41 157.638 202.179 148.966 205.323 135.124Z" fill="#1F8BE0"/>
<path opacity="0.6" d="M205.323 135.124C208.467 121.282 199.795 107.513 185.953 104.369C172.112 101.225 158.342 109.897 155.198 123.739C152.054 137.581 160.726 151.35 174.568 154.494C188.41 157.638 202.179 148.966 205.323 135.124Z" fill="white"/>
<path d="M205.359 206C208.502 192.159 199.83 178.389 185.988 175.245C172.147 172.101 158.377 180.773 155.233 194.615C152.089 208.457 160.762 222.226 174.603 225.37C188.445 228.514 202.215 219.842 205.359 206Z" fill="#1F8BE0"/>
<path opacity="0.6" d="M205.359 206C208.502 192.159 199.83 178.389 185.988 175.245C172.147 172.101 158.377 180.773 155.233 194.615C152.089 208.457 160.762 222.226 174.603 225.37C188.445 228.514 202.215 219.842 205.359 206Z" fill="white"/>
<path d="M205.296 276.854C208.44 263.013 199.768 249.243 185.926 246.099C172.084 242.955 158.315 251.628 155.171 265.469C152.027 279.311 160.699 293.081 174.541 296.224C188.383 299.368 202.152 290.696 205.296 276.854Z" fill="#1F8BE0"/>
<path opacity="0.6" d="M205.296 276.854C208.44 263.013 199.768 249.243 185.926 246.099C172.084 242.955 158.315 251.628 155.171 265.469C152.027 279.311 160.699 293.081 174.541 296.224C188.383 299.368 202.152 290.696 205.296 276.854Z" fill="white"/>
<path d="M134.434 64.1854C137.578 50.3437 128.905 36.5741 115.064 33.4302C101.222 30.2863 87.4525 38.9586 84.3086 52.8003C81.1647 66.642 89.837 80.4116 103.679 83.5555C117.52 86.6994 131.29 78.0271 134.434 64.1854Z" fill="#1F8BE0"/>
<path opacity="0.6" d="M134.434 64.1854C137.578 50.3437 128.905 36.5741 115.064 33.4302C101.222 30.2863 87.4525 38.9586 84.3086 52.8003C81.1647 66.642 89.837 80.4116 103.679 83.5555C117.52 86.6994 131.29 78.0271 134.434 64.1854Z" fill="white"/>
<path d="M134.469 135.062C137.613 121.22 128.941 107.45 115.099 104.306C101.257 101.163 87.4878 109.835 84.3439 123.677C81.1999 137.518 89.8722 151.288 103.714 154.432C117.556 157.576 131.325 148.903 134.469 135.062Z" fill="#1F8BE0"/>
<path opacity="0.6" d="M134.469 135.062C137.613 121.22 128.941 107.45 115.099 104.306C101.257 101.163 87.4878 109.835 84.3439 123.677C81.1999 137.518 89.8722 151.288 103.714 154.432C117.556 157.576 131.325 148.903 134.469 135.062Z" fill="white"/>
<path d="M134.504 205.938C137.648 192.096 128.976 178.327 115.134 175.183C101.293 172.039 87.523 180.711 84.3791 194.553C81.2352 208.395 89.9075 222.164 103.749 225.308C117.591 228.452 131.361 219.78 134.504 205.938Z" fill="#1F8BE0"/>
<path opacity="0.6" d="M134.504 205.938C137.648 192.096 128.976 178.327 115.134 175.183C101.293 172.039 87.523 180.711 84.3791 194.553C81.2352 208.395 89.9075 222.164 103.749 225.308C117.591 228.452 131.361 219.78 134.504 205.938Z" fill="white"/>
<path d="M134.442 276.792C137.586 262.95 128.914 249.181 115.072 246.037C101.23 242.893 87.4608 251.565 84.3169 265.407C81.173 279.249 89.8453 293.018 103.687 296.162C117.529 299.306 131.298 290.634 134.442 276.792Z" fill="#1F8BE0"/>
<path opacity="0.6" d="M134.442 276.792C137.586 262.95 128.914 249.181 115.072 246.037C101.23 242.893 87.4608 251.565 84.3169 265.407C81.173 279.249 89.8453 293.018 103.687 296.162C117.529 299.306 131.298 290.634 134.442 276.792Z" fill="white"/>
<path d="M272.2 136.9L266.8 131.3L261 138.7C261 138.7 265.4 142.9 270.6 141.7L272.2 136.9Z" fill="#9F5B53"/>
<path d="M259.4 128.3L256.9 136.1L261.1 138.8L266.8 131.3L259.4 128.3Z" fill="#9F5B53"/>
<path d="M186 128.7C187.9 123 194.5 120.5 199.6 123.2L193.6 120.1C189 117.7 186.8 112.2 188.9 107.5C191.2 102.3 197.3 100.2 202.2 102.8L196.2 99.7C191.6 97.3 189.4 91.8 191.5 87.1C193.8 81.9 199.9 79.8 204.8 82.4L176.3 67.5C172 65.3 169.8 60.3 171.3 55.7C173.2 50 179.8 47.5 184.9 50.2L244.9 81.6L239 56.3C238.4 53.8 238.8 51.2 239.9 49.1C241.1 46.8 243.3 44.9 246 44C251.2 42.4 256.7 45.1 258.7 50.1L278.4 101.2C280.1 105.6 283.3 109.2 287.4 111.3L290.8 113.1C293 114.3 293.9 117 292.7 119.2L268.7 165.1C267.5 167.3 264.8 168.2 262.6 167L254.2 162.6C251 160.9 247.4 160.3 243.9 160.5C235.3 161 226.7 159.1 219 155.1L191 140.5C186.7 138.3 184.5 133.3 186 128.7Z" fill="#1F8BE0"/>
<path d="M264.7 169.1C263.8 169.1 262.8 168.9 261.9 168.4L253.5 164C250.7 162.5 247.4 161.8 243.9 162C235 162.5 226.1 160.6 218.2 156.4L190.2 141.8C185.2 139.2 182.8 133.4 184.5 128.2C185.6 125.1 187.9 122.6 190.9 121.4C191.3 121.2 191.7 121.1 192.1 121C187.3 118 185.2 112 187.4 106.9C188.7 104 191 101.9 193.9 100.8C194.2 100.7 194.4 100.6 194.7 100.5C189.9 97.5 187.8 91.5 190 86.4C191.3 83.5 193.6 81.4 196.5 80.3C196.8 80.2 197 80.1 197.3 80.1L175.5 68.7C170.5 66.1 168.1 60.3 169.8 55.1C170.9 52 173.2 49.5 176.2 48.3C179.2 47.1 182.6 47.2 185.5 48.8L243 78.7L237.6 56.6C236.9 53.8 237.3 50.9 238.6 48.3C240.1 45.5 242.5 43.4 245.5 42.5C251.4 40.6 257.8 43.7 260 49.5L279.7 100.6C281.3 104.6 284.2 108 288 110L291.4 111.8C294.3 113.3 295.5 117 293.9 119.9L269.9 165.8C269 167.9 266.9 169.1 264.7 169.1ZM245.1 159C248.6 159 252 159.8 254.9 161.3L263.3 165.7C264 166.1 264.8 166.1 265.6 165.9C266.4 165.7 267 165.1 267.4 164.4L291.4 118.5C292.2 117 291.6 115.2 290.1 114.4L286.7 112.6C282.2 110.3 278.8 106.4 276.9 101.7L257.2 50.6C255.5 46.3 250.8 44 246.4 45.4C244.2 46.1 242.3 47.6 241.2 49.7C240.2 51.6 239.9 53.8 240.5 55.9L246.7 81.2C246.8 81.8 246.6 82.4 246.2 82.7C245.7 83.1 245.1 83.1 244.6 82.8L184.6 51.4C182.5 50.3 180 50.2 177.8 51.1C175.5 52 173.9 53.8 173.1 56.1C171.8 59.9 173.6 64.1 177.3 66.1L205.7 81C206.4 81.4 206.7 82.3 206.3 83C205.9 83.7 205 84 204.3 83.6C202.3 82.6 199.9 82.4 197.8 83.1C195.6 83.9 193.9 85.4 193 87.5C191.3 91.4 193.1 96.1 197 98.2L203 101.3C203.7 101.7 204 102.6 203.6 103.3C203.2 104 202.3 104.3 201.6 103.9C199.6 102.9 197.2 102.7 195.1 103.5C192.9 104.3 191.2 105.8 190.3 107.9C188.6 111.8 190.4 116.5 194.3 118.6L200.3 121.7C201 122.1 201.3 123 200.9 123.7C200.5 124.4 199.6 124.7 198.9 124.3C196.8 123.2 194.3 123.1 192.1 124C189.8 124.9 188.2 126.7 187.4 129C186.1 132.8 187.9 137 191.6 139L219.6 153.6C227 157.5 235.4 159.3 243.8 158.8C244.2 159 244.7 159 245.1 159Z" fill="#1F8BE0"/>
<path d="M207.1 128.6C206.9 128.6 206.6 128.5 206.4 128.4L198.9 124.5C198.2 124.1 197.9 123.2 198.3 122.5C198.7 121.8 199.6 121.5 200.3 121.9L207.8 125.8C208.5 126.2 208.8 127.1 208.4 127.8C208.2 128.3 207.7 128.6 207.1 128.6Z" fill="#1F8BE0"/>
<path d="M209.8 108.2C209.6 108.2 209.3 108.1 209.1 108L201.6 104.1C200.9 103.7 200.6 102.8 201 102.1C201.4 101.4 202.3 101.1 203 101.5L210.5 105.4C211.2 105.8 211.5 106.7 211.1 107.4C210.9 107.9 210.3 108.2 209.8 108.2Z" fill="#1F8BE0"/>
<path d="M212.5 87.8C212.3 87.8 212 87.7 211.8 87.6L204.3 83.7C203.6 83.3 203.3 82.4 203.7 81.7C204.1 81 205 80.7 205.7 81.1L213.2 85C213.9 85.4 214.2 86.3 213.8 87C213.5 87.5 213 87.8 212.5 87.8Z" fill="#1F8BE0"/>
<path opacity="0.3" d="M264.7 169.1C263.8 169.1 262.8 168.9 261.9 168.4L253.5 164C250.7 162.5 247.4 161.8 243.9 162C235 162.5 226.1 160.6 218.2 156.4L190.2 141.8C185.2 139.2 182.8 133.4 184.5 128.2C185.6 125.1 187.9 122.6 190.9 121.4C191.3 121.2 191.7 121.1 192.1 121C187.3 118 185.2 112 187.4 106.9C188.7 104 191 101.9 193.9 100.8C194.2 100.7 194.4 100.6 194.7 100.5C189.9 97.5 187.8 91.5 190 86.4C191.3 83.5 193.6 81.4 196.5 80.3C196.8 80.2 197 80.1 197.3 80.1L175.5 68.7C170.5 66.1 168.1 60.3 169.8 55.1C170.9 52 173.2 49.5 176.2 48.3C179.2 47.1 182.6 47.2 185.5 48.8L243 78.7L237.6 56.6C236.9 53.8 237.3 50.9 238.6 48.3C240.1 45.5 242.5 43.4 245.5 42.5C251.4 40.6 257.8 43.7 260 49.5L279.7 100.6C281.3 104.6 284.2 108 288 110L291.4 111.8C294.3 113.3 295.5 117 293.9 119.9L269.9 165.8C269 167.9 266.9 169.1 264.7 169.1ZM245.1 159C248.6 159 252 159.8 254.9 161.3L263.3 165.7C264 166.1 264.8 166.1 265.6 165.9C266.4 165.7 267 165.1 267.4 164.4L291.4 118.5C292.2 117 291.6 115.2 290.1 114.4L286.7 112.6C282.2 110.3 278.8 106.4 276.9 101.7L257.2 50.6C255.5 46.3 250.8 44 246.4 45.4C244.2 46.1 242.3 47.6 241.2 49.7C240.2 51.6 239.9 53.8 240.5 55.9L246.7 81.2C246.8 81.8 246.6 82.4 246.2 82.7C245.7 83.1 245.1 83.1 244.6 82.8L184.6 51.4C182.5 50.3 180 50.2 177.8 51.1C175.5 52 173.9 53.8 173.1 56.1C171.8 59.9 173.6 64.1 177.3 66.1L205.7 81C206.4 81.4 206.7 82.3 206.3 83C205.9 83.7 205 84 204.3 83.6C202.3 82.6 199.9 82.4 197.8 83.1C195.6 83.9 193.9 85.4 193 87.5C191.3 91.4 193.1 96.1 197 98.2L203 101.3C203.7 101.7 204 102.6 203.6 103.3C203.2 104 202.3 104.3 201.6 103.9C199.6 102.9 197.2 102.7 195.1 103.5C192.9 104.3 191.2 105.8 190.3 107.9C188.6 111.8 190.4 116.5 194.3 118.6L200.3 121.7C201 122.1 201.3 123 200.9 123.7C200.5 124.4 199.6 124.7 198.9 124.3C196.8 123.2 194.3 123.1 192.1 124C189.8 124.9 188.2 126.7 187.4 129C186.1 132.8 187.9 137 191.6 139L219.6 153.6C227 157.5 235.4 159.3 243.8 158.8C244.2 159 244.7 159 245.1 159Z" fill="black"/>
</g>
<defs>
<clipPath id="clip0">
<rect width="500" height="372.6" fill="white"/>
</clipPath>
</defs>
</svg>
